<mxfile host="app.diagrams.net" agent="Mozilla/5.0 (Windows NT 10.0; Win64; x64) AppleWebKit/537.36 (KHTML, like Gecko) Chrome/136.0.0.0 Safari/537.36" version="27.0.9">
  <diagram id="R2lEEEUBdFMjLlhIrx00" name="Page-1">
    <mxGraphModel dx="2048" dy="1012" grid="1" gridSize="10" guides="1" tooltips="1" connect="1" arrows="1" fold="1" page="1" pageScale="1" pageWidth="850" pageHeight="1100" math="0" shadow="0" extFonts="Permanent Marker^https://fonts.googleapis.com/css?family=Permanent+Marker">
      <root>
        <mxCell id="0" />
        <mxCell id="1" parent="0" />
        <mxCell id="6AL398sb1X5Xjt_MEFjy-1" value="especies" style="whiteSpace=wrap;html=1;align=center;" vertex="1" parent="1">
          <mxGeometry x="2440" y="1220" width="80" height="40" as="geometry" />
        </mxCell>
        <mxCell id="6AL398sb1X5Xjt_MEFjy-2" value="" style="edgeStyle=orthogonalEdgeStyle;rounded=0;orthogonalLoop=1;jettySize=auto;html=1;entryX=0.5;entryY=1;entryDx=0;entryDy=0;startArrow=ERmany;startFill=0;endArrow=ERmany;endFill=0;exitX=1;exitY=0.5;exitDx=0;exitDy=0;" edge="1" parent="1" source="6AL398sb1X5Xjt_MEFjy-3">
          <mxGeometry relative="1" as="geometry">
            <mxPoint x="1810" y="1520" as="sourcePoint" />
            <mxPoint x="2140" y="1460" as="targetPoint" />
          </mxGeometry>
        </mxCell>
        <mxCell id="6AL398sb1X5Xjt_MEFjy-3" value="tambor" style="whiteSpace=wrap;html=1;align=center;" vertex="1" parent="1">
          <mxGeometry x="1680" y="1500" width="80" height="40" as="geometry" />
        </mxCell>
        <mxCell id="6AL398sb1X5Xjt_MEFjy-4" style="edgeStyle=orthogonalEdgeStyle;rounded=0;orthogonalLoop=1;jettySize=auto;html=1;entryX=0;entryY=0.5;entryDx=0;entryDy=0;endArrow=ERone;endFill=0;startArrow=ERmany;startFill=0;" edge="1" parent="1" source="6AL398sb1X5Xjt_MEFjy-5" target="6AL398sb1X5Xjt_MEFjy-65">
          <mxGeometry relative="1" as="geometry">
            <Array as="points">
              <mxPoint x="2180" y="1560" />
            </Array>
          </mxGeometry>
        </mxCell>
        <mxCell id="6AL398sb1X5Xjt_MEFjy-5" value="Muestra" style="whiteSpace=wrap;html=1;align=center;" vertex="1" parent="1">
          <mxGeometry x="2120" y="1420" width="80" height="40" as="geometry" />
        </mxCell>
        <mxCell id="6AL398sb1X5Xjt_MEFjy-6" value="id_especie" style="ellipse;whiteSpace=wrap;html=1;align=center;fontStyle=4;" vertex="1" parent="1">
          <mxGeometry x="2320" y="1190" width="80" height="40" as="geometry" />
        </mxCell>
        <mxCell id="6AL398sb1X5Xjt_MEFjy-7" value="nombre_comun" style="ellipse;whiteSpace=wrap;html=1;align=center;" vertex="1" parent="1">
          <mxGeometry x="2380" y="1140" width="80" height="40" as="geometry" />
        </mxCell>
        <mxCell id="6AL398sb1X5Xjt_MEFjy-8" value="familia" style="ellipse;whiteSpace=wrap;html=1;align=center;" vertex="1" parent="1">
          <mxGeometry x="2470" y="1140" width="80" height="40" as="geometry" />
        </mxCell>
        <mxCell id="6AL398sb1X5Xjt_MEFjy-9" value="" style="endArrow=none;html=1;rounded=0;entryX=0;entryY=0.5;entryDx=0;entryDy=0;exitX=1;exitY=0.5;exitDx=0;exitDy=0;" edge="1" parent="1" source="6AL398sb1X5Xjt_MEFjy-6" target="6AL398sb1X5Xjt_MEFjy-1">
          <mxGeometry relative="1" as="geometry">
            <mxPoint x="2420" y="1180" as="sourcePoint" />
            <mxPoint x="2580" y="1180" as="targetPoint" />
          </mxGeometry>
        </mxCell>
        <mxCell id="6AL398sb1X5Xjt_MEFjy-10" value="" style="endArrow=none;html=1;rounded=0;entryX=0.25;entryY=0;entryDx=0;entryDy=0;exitX=0.5;exitY=1;exitDx=0;exitDy=0;" edge="1" parent="1" source="6AL398sb1X5Xjt_MEFjy-7" target="6AL398sb1X5Xjt_MEFjy-1">
          <mxGeometry relative="1" as="geometry">
            <mxPoint x="2420" y="1220" as="sourcePoint" />
            <mxPoint x="2460" y="1250" as="targetPoint" />
          </mxGeometry>
        </mxCell>
        <mxCell id="6AL398sb1X5Xjt_MEFjy-11" value="" style="endArrow=none;html=1;rounded=0;entryX=0.75;entryY=0;entryDx=0;entryDy=0;exitX=0.5;exitY=1;exitDx=0;exitDy=0;" edge="1" parent="1" source="6AL398sb1X5Xjt_MEFjy-8" target="6AL398sb1X5Xjt_MEFjy-1">
          <mxGeometry relative="1" as="geometry">
            <mxPoint x="2570" y="1190" as="sourcePoint" />
            <mxPoint x="2610" y="1220" as="targetPoint" />
          </mxGeometry>
        </mxCell>
        <mxCell id="6AL398sb1X5Xjt_MEFjy-12" value="" style="endArrow=none;html=1;rounded=0;entryX=1;entryY=0.5;entryDx=0;entryDy=0;exitX=0;exitY=0.75;exitDx=0;exitDy=0;" edge="1" parent="1" source="6AL398sb1X5Xjt_MEFjy-3" target="6AL398sb1X5Xjt_MEFjy-46">
          <mxGeometry relative="1" as="geometry">
            <mxPoint x="1850" y="1360" as="sourcePoint" />
            <mxPoint x="1269.9999999999998" y="1520" as="targetPoint" />
          </mxGeometry>
        </mxCell>
        <mxCell id="6AL398sb1X5Xjt_MEFjy-13" value="muestra_tambor" style="shape=rhombus;perimeter=rhombusPerimeter;whiteSpace=wrap;html=1;align=center;" vertex="1" parent="1">
          <mxGeometry x="1970" y="1495" width="90" height="50" as="geometry" />
        </mxCell>
        <mxCell id="6AL398sb1X5Xjt_MEFjy-14" value="fecha_extraccion" style="ellipse;whiteSpace=wrap;html=1;align=center;" vertex="1" parent="1">
          <mxGeometry x="2170" y="1250" width="80" height="40" as="geometry" />
        </mxCell>
        <mxCell id="6AL398sb1X5Xjt_MEFjy-15" value="&lt;u&gt;id_muestra&lt;/u&gt;" style="ellipse;whiteSpace=wrap;html=1;align=center;" vertex="1" parent="1">
          <mxGeometry x="2070" y="1350" width="80" height="40" as="geometry" />
        </mxCell>
        <mxCell id="6AL398sb1X5Xjt_MEFjy-16" value="observaciones" style="ellipse;whiteSpace=wrap;html=1;align=center;" vertex="1" parent="1">
          <mxGeometry x="2170" y="1350" width="80" height="40" as="geometry" />
        </mxCell>
        <mxCell id="6AL398sb1X5Xjt_MEFjy-17" value="" style="endArrow=none;html=1;rounded=0;exitX=0.5;exitY=0;exitDx=0;exitDy=0;" edge="1" parent="1" source="6AL398sb1X5Xjt_MEFjy-5">
          <mxGeometry relative="1" as="geometry">
            <mxPoint x="2250" y="1400" as="sourcePoint" />
            <mxPoint x="2160" y="1270" as="targetPoint" />
          </mxGeometry>
        </mxCell>
        <mxCell id="6AL398sb1X5Xjt_MEFjy-18" value="fecha_analisis" style="ellipse;whiteSpace=wrap;html=1;align=center;" vertex="1" parent="1">
          <mxGeometry x="2170" y="1300" width="80" height="40" as="geometry" />
        </mxCell>
        <mxCell id="6AL398sb1X5Xjt_MEFjy-19" value="num_registro" style="ellipse;whiteSpace=wrap;html=1;align=center;" vertex="1" parent="1">
          <mxGeometry x="2070" y="1300" width="80" height="40" as="geometry" />
        </mxCell>
        <mxCell id="6AL398sb1X5Xjt_MEFjy-20" style="edgeStyle=orthogonalEdgeStyle;rounded=0;orthogonalLoop=1;jettySize=auto;html=1;entryX=0.5;entryY=0;entryDx=0;entryDy=0;startArrow=ERmany;startFill=0;endArrow=ERmany;endFill=0;" edge="1" parent="1" source="6AL398sb1X5Xjt_MEFjy-21" target="6AL398sb1X5Xjt_MEFjy-3">
          <mxGeometry relative="1" as="geometry" />
        </mxCell>
        <mxCell id="6AL398sb1X5Xjt_MEFjy-21" value="apiarios" style="whiteSpace=wrap;html=1;align=center;" vertex="1" parent="1">
          <mxGeometry x="1680" y="1200" width="80" height="40" as="geometry" />
        </mxCell>
        <mxCell id="6AL398sb1X5Xjt_MEFjy-22" value="id_apiario" style="ellipse;whiteSpace=wrap;html=1;align=center;fontStyle=4;" vertex="1" parent="1">
          <mxGeometry x="1630" y="1260" width="80" height="40" as="geometry" />
        </mxCell>
        <mxCell id="6AL398sb1X5Xjt_MEFjy-23" value="id_apicultor" style="ellipse;whiteSpace=wrap;html=1;align=center;" vertex="1" parent="1">
          <mxGeometry x="1600" y="1140" width="80" height="40" as="geometry" />
        </mxCell>
        <mxCell id="6AL398sb1X5Xjt_MEFjy-24" value="nombre_apiario" style="ellipse;whiteSpace=wrap;html=1;align=center;" vertex="1" parent="1">
          <mxGeometry x="1675" y="1110" width="85" height="40" as="geometry" />
        </mxCell>
        <mxCell id="6AL398sb1X5Xjt_MEFjy-25" value="" style="endArrow=none;html=1;rounded=0;entryX=0.25;entryY=1;entryDx=0;entryDy=0;exitX=0.5;exitY=0;exitDx=0;exitDy=0;" edge="1" parent="1" source="6AL398sb1X5Xjt_MEFjy-22" target="6AL398sb1X5Xjt_MEFjy-21">
          <mxGeometry relative="1" as="geometry">
            <mxPoint x="1660" y="1160" as="sourcePoint" />
            <mxPoint x="1820" y="1160" as="targetPoint" />
          </mxGeometry>
        </mxCell>
        <mxCell id="6AL398sb1X5Xjt_MEFjy-26" value="" style="endArrow=none;html=1;rounded=0;entryX=0.25;entryY=0;entryDx=0;entryDy=0;exitX=1;exitY=1;exitDx=0;exitDy=0;" edge="1" parent="1" source="6AL398sb1X5Xjt_MEFjy-23" target="6AL398sb1X5Xjt_MEFjy-21">
          <mxGeometry relative="1" as="geometry">
            <mxPoint x="1660" y="1200" as="sourcePoint" />
            <mxPoint x="1700" y="1230" as="targetPoint" />
          </mxGeometry>
        </mxCell>
        <mxCell id="6AL398sb1X5Xjt_MEFjy-27" value="" style="endArrow=none;html=1;rounded=0;entryX=0.5;entryY=0;entryDx=0;entryDy=0;exitX=0.5;exitY=1;exitDx=0;exitDy=0;" edge="1" parent="1" source="6AL398sb1X5Xjt_MEFjy-24" target="6AL398sb1X5Xjt_MEFjy-21">
          <mxGeometry relative="1" as="geometry">
            <mxPoint x="1810" y="1170" as="sourcePoint" />
            <mxPoint x="1850" y="1200" as="targetPoint" />
          </mxGeometry>
        </mxCell>
        <mxCell id="6AL398sb1X5Xjt_MEFjy-28" value="tambor_api" style="shape=rhombus;perimeter=rhombusPerimeter;whiteSpace=wrap;html=1;align=center;" vertex="1" parent="1">
          <mxGeometry x="1680" y="1380" width="80" height="40" as="geometry" />
        </mxCell>
        <mxCell id="6AL398sb1X5Xjt_MEFjy-29" value="cant_colmenas" style="ellipse;whiteSpace=wrap;html=1;align=center;" vertex="1" parent="1">
          <mxGeometry x="1770" y="1120" width="80" height="40" as="geometry" />
        </mxCell>
        <mxCell id="6AL398sb1X5Xjt_MEFjy-30" value="longitud" style="ellipse;whiteSpace=wrap;html=1;align=center;" vertex="1" parent="1">
          <mxGeometry x="1800" y="1220" width="80" height="40" as="geometry" />
        </mxCell>
        <mxCell id="6AL398sb1X5Xjt_MEFjy-31" value="" style="endArrow=none;html=1;rounded=0;entryX=0.75;entryY=0;entryDx=0;entryDy=0;exitX=0;exitY=1;exitDx=0;exitDy=0;" edge="1" parent="1" source="6AL398sb1X5Xjt_MEFjy-29" target="6AL398sb1X5Xjt_MEFjy-21">
          <mxGeometry relative="1" as="geometry">
            <mxPoint x="1705" y="1160" as="sourcePoint" />
            <mxPoint x="1735" y="1230" as="targetPoint" />
          </mxGeometry>
        </mxCell>
        <mxCell id="6AL398sb1X5Xjt_MEFjy-32" value="" style="endArrow=none;html=1;rounded=0;exitX=0;exitY=0.5;exitDx=0;exitDy=0;entryX=1;entryY=0.75;entryDx=0;entryDy=0;" edge="1" parent="1" source="6AL398sb1X5Xjt_MEFjy-30" target="6AL398sb1X5Xjt_MEFjy-21">
          <mxGeometry relative="1" as="geometry">
            <mxPoint x="1805" y="1240" as="sourcePoint" />
            <mxPoint x="1770" y="1220" as="targetPoint" />
          </mxGeometry>
        </mxCell>
        <mxCell id="6AL398sb1X5Xjt_MEFjy-33" value="id_especie" style="ellipse;whiteSpace=wrap;html=1;align=center;" vertex="1" parent="1">
          <mxGeometry x="2530" y="1320" width="80" height="40" as="geometry" />
        </mxCell>
        <mxCell id="6AL398sb1X5Xjt_MEFjy-34" value="" style="endArrow=none;html=1;rounded=0;exitX=0.675;exitY=0.225;exitDx=0;exitDy=0;entryX=0;entryY=0.5;entryDx=0;entryDy=0;exitPerimeter=0;" edge="1" parent="1" source="6AL398sb1X5Xjt_MEFjy-37" target="6AL398sb1X5Xjt_MEFjy-33">
          <mxGeometry relative="1" as="geometry">
            <mxPoint x="2500" y="1330" as="sourcePoint" />
            <mxPoint x="2640" y="1390" as="targetPoint" />
          </mxGeometry>
        </mxCell>
        <mxCell id="6AL398sb1X5Xjt_MEFjy-35" style="edgeStyle=orthogonalEdgeStyle;rounded=0;orthogonalLoop=1;jettySize=auto;html=1;entryX=1;entryY=0.5;entryDx=0;entryDy=0;endArrow=ERmany;endFill=0;startArrow=ERmany;startFill=0;" edge="1" parent="1" target="6AL398sb1X5Xjt_MEFjy-5">
          <mxGeometry relative="1" as="geometry">
            <mxPoint x="2480" y="1260" as="sourcePoint" />
            <mxPoint x="2480" y="1420" as="targetPoint" />
            <Array as="points">
              <mxPoint x="2480" y="1440" />
            </Array>
          </mxGeometry>
        </mxCell>
        <mxCell id="6AL398sb1X5Xjt_MEFjy-36" value="&lt;u&gt;id_palinologico&lt;/u&gt;" style="ellipse;whiteSpace=wrap;html=1;align=center;" vertex="1" parent="1">
          <mxGeometry x="2600" y="1360" width="100" height="40" as="geometry" />
        </mxCell>
        <mxCell id="6AL398sb1X5Xjt_MEFjy-37" value="analisis_palio" style="shape=rhombus;perimeter=rhombusPerimeter;whiteSpace=wrap;html=1;align=center;" vertex="1" parent="1">
          <mxGeometry x="2440" y="1360" width="80" height="40" as="geometry" />
        </mxCell>
        <mxCell id="6AL398sb1X5Xjt_MEFjy-38" value="" style="endArrow=none;html=1;rounded=0;entryX=1;entryY=0.5;entryDx=0;entryDy=0;exitX=0;exitY=0.5;exitDx=0;exitDy=0;" edge="1" parent="1" source="6AL398sb1X5Xjt_MEFjy-36" target="6AL398sb1X5Xjt_MEFjy-37">
          <mxGeometry relative="1" as="geometry">
            <mxPoint x="2550" y="1310" as="sourcePoint" />
            <mxPoint x="2520" y="1370" as="targetPoint" />
          </mxGeometry>
        </mxCell>
        <mxCell id="6AL398sb1X5Xjt_MEFjy-39" value="" style="endArrow=none;html=1;rounded=0;entryX=0;entryY=0;entryDx=0;entryDy=0;exitX=1;exitY=0.5;exitDx=0;exitDy=0;" edge="1" parent="1" source="6AL398sb1X5Xjt_MEFjy-40" target="6AL398sb1X5Xjt_MEFjy-37">
          <mxGeometry relative="1" as="geometry">
            <mxPoint x="2400" y="1340" as="sourcePoint" />
            <mxPoint x="2440" y="1340" as="targetPoint" />
          </mxGeometry>
        </mxCell>
        <mxCell id="6AL398sb1X5Xjt_MEFjy-40" value="cantidad_granos" style="ellipse;whiteSpace=wrap;html=1;align=center;" vertex="1" parent="1">
          <mxGeometry x="2330" y="1330" width="100" height="40" as="geometry" />
        </mxCell>
        <mxCell id="6AL398sb1X5Xjt_MEFjy-41" value="nombre_cientifico" style="ellipse;whiteSpace=wrap;html=1;align=center;" vertex="1" parent="1">
          <mxGeometry x="2540" y="1180" width="80" height="40" as="geometry" />
        </mxCell>
        <mxCell id="6AL398sb1X5Xjt_MEFjy-42" value="" style="endArrow=none;html=1;rounded=0;entryX=1;entryY=0.5;entryDx=0;entryDy=0;exitX=0;exitY=1;exitDx=0;exitDy=0;" edge="1" parent="1" source="6AL398sb1X5Xjt_MEFjy-41" target="6AL398sb1X5Xjt_MEFjy-1">
          <mxGeometry relative="1" as="geometry">
            <mxPoint x="2510" y="1200" as="sourcePoint" />
            <mxPoint x="2500" y="1240" as="targetPoint" />
          </mxGeometry>
        </mxCell>
        <mxCell id="6AL398sb1X5Xjt_MEFjy-43" value="&lt;u&gt;id_muestra&lt;/u&gt;" style="ellipse;whiteSpace=wrap;html=1;align=center;" vertex="1" parent="1">
          <mxGeometry x="2040" y="1560" width="80" height="40" as="geometry" />
        </mxCell>
        <mxCell id="6AL398sb1X5Xjt_MEFjy-44" value="" style="endArrow=none;html=1;rounded=0;exitX=0;exitY=1;exitDx=0;exitDy=0;entryX=0.5;entryY=0;entryDx=0;entryDy=0;" edge="1" parent="1" source="6AL398sb1X5Xjt_MEFjy-13" target="6AL398sb1X5Xjt_MEFjy-55">
          <mxGeometry relative="1" as="geometry">
            <mxPoint x="2000" y="1530" as="sourcePoint" />
            <mxPoint x="1980" y="1560" as="targetPoint" />
          </mxGeometry>
        </mxCell>
        <mxCell id="6AL398sb1X5Xjt_MEFjy-45" value="" style="endArrow=none;html=1;rounded=0;exitX=1;exitY=1;exitDx=0;exitDy=0;entryX=0.5;entryY=0;entryDx=0;entryDy=0;" edge="1" parent="1" source="6AL398sb1X5Xjt_MEFjy-13" target="6AL398sb1X5Xjt_MEFjy-43">
          <mxGeometry relative="1" as="geometry">
            <mxPoint x="2070" y="1530" as="sourcePoint" />
            <mxPoint x="2050" y="1560" as="targetPoint" />
          </mxGeometry>
        </mxCell>
        <mxCell id="6AL398sb1X5Xjt_MEFjy-46" value="id_tambor" style="ellipse;whiteSpace=wrap;html=1;align=center;fontStyle=4;" vertex="1" parent="1">
          <mxGeometry x="1560" y="1530" width="80" height="40" as="geometry" />
        </mxCell>
        <mxCell id="6AL398sb1X5Xjt_MEFjy-47" value="localidad" style="ellipse;whiteSpace=wrap;html=1;align=center;" vertex="1" parent="1">
          <mxGeometry x="1795" y="1170" width="80" height="40" as="geometry" />
        </mxCell>
        <mxCell id="6AL398sb1X5Xjt_MEFjy-48" value="" style="endArrow=none;html=1;rounded=0;exitX=0;exitY=0.5;exitDx=0;exitDy=0;entryX=1;entryY=0.25;entryDx=0;entryDy=0;" edge="1" parent="1" source="6AL398sb1X5Xjt_MEFjy-47" target="6AL398sb1X5Xjt_MEFjy-21">
          <mxGeometry relative="1" as="geometry">
            <mxPoint x="1822" y="1190" as="sourcePoint" />
            <mxPoint x="1770" y="1210" as="targetPoint" />
          </mxGeometry>
        </mxCell>
        <mxCell id="6AL398sb1X5Xjt_MEFjy-49" value="&lt;u&gt;id_apiario&lt;/u&gt;" style="ellipse;whiteSpace=wrap;html=1;align=center;" vertex="1" parent="1">
          <mxGeometry x="1780" y="1350" width="80" height="40" as="geometry" />
        </mxCell>
        <mxCell id="6AL398sb1X5Xjt_MEFjy-50" value="" style="endArrow=none;html=1;rounded=0;entryX=1;entryY=0;entryDx=0;entryDy=0;exitX=0;exitY=0.5;exitDx=0;exitDy=0;" edge="1" parent="1" source="6AL398sb1X5Xjt_MEFjy-49" target="6AL398sb1X5Xjt_MEFjy-28">
          <mxGeometry relative="1" as="geometry">
            <mxPoint x="1785" y="1420" as="sourcePoint" />
            <mxPoint x="1755" y="1420" as="targetPoint" />
          </mxGeometry>
        </mxCell>
        <mxCell id="6AL398sb1X5Xjt_MEFjy-51" style="edgeStyle=orthogonalEdgeStyle;rounded=0;orthogonalLoop=1;jettySize=auto;html=1;entryX=0;entryY=0.5;entryDx=0;entryDy=0;startArrow=ERone;startFill=0;endArrow=ERmany;endFill=0;" edge="1" parent="1" source="6AL398sb1X5Xjt_MEFjy-52" target="6AL398sb1X5Xjt_MEFjy-21">
          <mxGeometry relative="1" as="geometry" />
        </mxCell>
        <mxCell id="6AL398sb1X5Xjt_MEFjy-52" value="apicultor" style="whiteSpace=wrap;html=1;align=center;" vertex="1" parent="1">
          <mxGeometry x="1360" y="1200" width="80" height="40" as="geometry" />
        </mxCell>
        <mxCell id="6AL398sb1X5Xjt_MEFjy-53" value="&lt;u&gt;id_tambor&lt;/u&gt;" style="ellipse;whiteSpace=wrap;html=1;align=center;" vertex="1" parent="1">
          <mxGeometry x="1780" y="1400" width="80" height="40" as="geometry" />
        </mxCell>
        <mxCell id="6AL398sb1X5Xjt_MEFjy-54" value="" style="endArrow=none;html=1;rounded=0;entryX=1;entryY=1;entryDx=0;entryDy=0;exitX=0;exitY=0.5;exitDx=0;exitDy=0;" edge="1" parent="1" source="6AL398sb1X5Xjt_MEFjy-53" target="6AL398sb1X5Xjt_MEFjy-28">
          <mxGeometry relative="1" as="geometry">
            <mxPoint x="1790" y="1380" as="sourcePoint" />
            <mxPoint x="1770" y="1410" as="targetPoint" />
          </mxGeometry>
        </mxCell>
        <mxCell id="6AL398sb1X5Xjt_MEFjy-55" value="&lt;u&gt;id_tambor&lt;/u&gt;" style="ellipse;whiteSpace=wrap;html=1;align=center;" vertex="1" parent="1">
          <mxGeometry x="1920" y="1560" width="80" height="40" as="geometry" />
        </mxCell>
        <mxCell id="6AL398sb1X5Xjt_MEFjy-56" value="tiene_a" style="shape=rhombus;perimeter=rhombusPerimeter;whiteSpace=wrap;html=1;align=center;" vertex="1" parent="1">
          <mxGeometry x="1530" y="1200" width="80" height="40" as="geometry" />
        </mxCell>
        <mxCell id="6AL398sb1X5Xjt_MEFjy-57" value="id_apicultor" style="ellipse;whiteSpace=wrap;html=1;align=center;fontStyle=4;" vertex="1" parent="1">
          <mxGeometry x="1310" y="1120" width="80" height="40" as="geometry" />
        </mxCell>
        <mxCell id="6AL398sb1X5Xjt_MEFjy-58" value="apellido" style="ellipse;whiteSpace=wrap;html=1;align=center;" vertex="1" parent="1">
          <mxGeometry x="1410" y="1120" width="80" height="40" as="geometry" />
        </mxCell>
        <mxCell id="6AL398sb1X5Xjt_MEFjy-59" value="" style="endArrow=none;html=1;rounded=0;entryX=0.25;entryY=0;entryDx=0;entryDy=0;exitX=0.5;exitY=1;exitDx=0;exitDy=0;" edge="1" parent="1" source="6AL398sb1X5Xjt_MEFjy-57" target="6AL398sb1X5Xjt_MEFjy-52">
          <mxGeometry relative="1" as="geometry">
            <mxPoint x="1310" y="1185" as="sourcePoint" />
            <mxPoint x="1330" y="1215" as="targetPoint" />
          </mxGeometry>
        </mxCell>
        <mxCell id="6AL398sb1X5Xjt_MEFjy-60" value="" style="endArrow=none;html=1;rounded=0;entryX=0.75;entryY=0;entryDx=0;entryDy=0;exitX=0.5;exitY=1;exitDx=0;exitDy=0;" edge="1" parent="1" source="6AL398sb1X5Xjt_MEFjy-58" target="6AL398sb1X5Xjt_MEFjy-52">
          <mxGeometry relative="1" as="geometry">
            <mxPoint x="1410" y="1170" as="sourcePoint" />
            <mxPoint x="1430" y="1200" as="targetPoint" />
          </mxGeometry>
        </mxCell>
        <mxCell id="6AL398sb1X5Xjt_MEFjy-61" value="marca_especial" style="ellipse;whiteSpace=wrap;html=1;align=center;" vertex="1" parent="1">
          <mxGeometry x="2330" y="1380" width="100" height="40" as="geometry" />
        </mxCell>
        <mxCell id="6AL398sb1X5Xjt_MEFjy-62" value="" style="endArrow=none;html=1;rounded=0;entryX=0;entryY=1;entryDx=0;entryDy=0;exitX=1;exitY=0.5;exitDx=0;exitDy=0;" edge="1" parent="1" source="6AL398sb1X5Xjt_MEFjy-61" target="6AL398sb1X5Xjt_MEFjy-37">
          <mxGeometry relative="1" as="geometry">
            <mxPoint x="2430" y="1320" as="sourcePoint" />
            <mxPoint x="2492" y="1336" as="targetPoint" />
          </mxGeometry>
        </mxCell>
        <mxCell id="6AL398sb1X5Xjt_MEFjy-63" value="id_muestra" style="ellipse;whiteSpace=wrap;html=1;align=center;" vertex="1" parent="1">
          <mxGeometry x="2530" y="1400" width="80" height="40" as="geometry" />
        </mxCell>
        <mxCell id="6AL398sb1X5Xjt_MEFjy-64" value="" style="endArrow=none;html=1;rounded=0;exitX=0;exitY=0.5;exitDx=0;exitDy=0;entryX=1;entryY=1;entryDx=0;entryDy=0;" edge="1" parent="1" source="6AL398sb1X5Xjt_MEFjy-63" target="6AL398sb1X5Xjt_MEFjy-37">
          <mxGeometry relative="1" as="geometry">
            <mxPoint x="2500" y="1559" as="sourcePoint" />
            <mxPoint x="2536" y="1530" as="targetPoint" />
          </mxGeometry>
        </mxCell>
        <mxCell id="6AL398sb1X5Xjt_MEFjy-65" value="analista" style="whiteSpace=wrap;html=1;align=center;" vertex="1" parent="1">
          <mxGeometry x="2440" y="1540" width="80" height="40" as="geometry" />
        </mxCell>
        <mxCell id="6AL398sb1X5Xjt_MEFjy-66" value="id_analista" style="ellipse;whiteSpace=wrap;html=1;align=center;" vertex="1" parent="1">
          <mxGeometry x="2070" y="1250" width="80" height="40" as="geometry" />
        </mxCell>
        <mxCell id="6AL398sb1X5Xjt_MEFjy-67" value="tomo_muest" style="shape=rhombus;perimeter=rhombusPerimeter;whiteSpace=wrap;html=1;align=center;" vertex="1" parent="1">
          <mxGeometry x="2240" y="1540" width="80" height="40" as="geometry" />
        </mxCell>
        <mxCell id="6AL398sb1X5Xjt_MEFjy-68" value="&lt;u&gt;id_analista&lt;/u&gt;" style="ellipse;whiteSpace=wrap;html=1;align=center;" vertex="1" parent="1">
          <mxGeometry x="2440" y="1600" width="80" height="40" as="geometry" />
        </mxCell>
        <mxCell id="6AL398sb1X5Xjt_MEFjy-69" value="nombres" style="ellipse;whiteSpace=wrap;html=1;align=center;" vertex="1" parent="1">
          <mxGeometry x="2530" y="1600" width="80" height="40" as="geometry" />
        </mxCell>
        <mxCell id="6AL398sb1X5Xjt_MEFjy-70" value="apellidos" style="ellipse;whiteSpace=wrap;html=1;align=center;" vertex="1" parent="1">
          <mxGeometry x="2550" y="1540" width="80" height="40" as="geometry" />
        </mxCell>
        <mxCell id="6AL398sb1X5Xjt_MEFjy-71" value="contacto" style="ellipse;whiteSpace=wrap;html=1;align=center;" vertex="1" parent="1">
          <mxGeometry x="2530" y="1490" width="80" height="40" as="geometry" />
        </mxCell>
        <mxCell id="6AL398sb1X5Xjt_MEFjy-72" value="" style="endArrow=none;html=1;rounded=0;exitX=0.5;exitY=0;exitDx=0;exitDy=0;entryX=0.5;entryY=1;entryDx=0;entryDy=0;" edge="1" parent="1" source="6AL398sb1X5Xjt_MEFjy-68" target="6AL398sb1X5Xjt_MEFjy-65">
          <mxGeometry relative="1" as="geometry">
            <mxPoint x="2440" y="1620" as="sourcePoint" />
            <mxPoint x="2410" y="1590" as="targetPoint" />
          </mxGeometry>
        </mxCell>
        <mxCell id="6AL398sb1X5Xjt_MEFjy-73" value="" style="endArrow=none;html=1;rounded=0;exitX=0.75;exitY=0;exitDx=0;exitDy=0;entryX=0;entryY=0.5;entryDx=0;entryDy=0;" edge="1" parent="1" source="6AL398sb1X5Xjt_MEFjy-65" target="6AL398sb1X5Xjt_MEFjy-71">
          <mxGeometry relative="1" as="geometry">
            <mxPoint x="2500" y="1520" as="sourcePoint" />
            <mxPoint x="2470" y="1490" as="targetPoint" />
          </mxGeometry>
        </mxCell>
        <mxCell id="6AL398sb1X5Xjt_MEFjy-74" value="" style="endArrow=none;html=1;rounded=0;exitX=0;exitY=0.5;exitDx=0;exitDy=0;entryX=1;entryY=0.5;entryDx=0;entryDy=0;" edge="1" parent="1" source="6AL398sb1X5Xjt_MEFjy-70" target="6AL398sb1X5Xjt_MEFjy-65">
          <mxGeometry relative="1" as="geometry">
            <mxPoint x="2530" y="1540" as="sourcePoint" />
            <mxPoint x="2500" y="1510" as="targetPoint" />
          </mxGeometry>
        </mxCell>
        <mxCell id="6AL398sb1X5Xjt_MEFjy-75" value="" style="endArrow=none;html=1;rounded=0;exitX=0;exitY=0;exitDx=0;exitDy=0;entryX=0.75;entryY=1;entryDx=0;entryDy=0;" edge="1" parent="1" source="6AL398sb1X5Xjt_MEFjy-69" target="6AL398sb1X5Xjt_MEFjy-65">
          <mxGeometry relative="1" as="geometry">
            <mxPoint x="2530" y="1620" as="sourcePoint" />
            <mxPoint x="2500" y="1590" as="targetPoint" />
          </mxGeometry>
        </mxCell>
        <mxCell id="6AL398sb1X5Xjt_MEFjy-76" value="nombre" style="ellipse;whiteSpace=wrap;html=1;align=center;" vertex="1" parent="1">
          <mxGeometry x="1240" y="1190" width="80" height="40" as="geometry" />
        </mxCell>
        <mxCell id="6AL398sb1X5Xjt_MEFjy-77" value="" style="endArrow=none;html=1;rounded=0;entryX=0;entryY=0.5;entryDx=0;entryDy=0;exitX=1;exitY=0.5;exitDx=0;exitDy=0;" edge="1" parent="1" source="6AL398sb1X5Xjt_MEFjy-76" target="6AL398sb1X5Xjt_MEFjy-52">
          <mxGeometry relative="1" as="geometry">
            <mxPoint x="1460" y="1170" as="sourcePoint" />
            <mxPoint x="1430" y="1210" as="targetPoint" />
          </mxGeometry>
        </mxCell>
        <mxCell id="6AL398sb1X5Xjt_MEFjy-78" value="num_registro" style="ellipse;whiteSpace=wrap;html=1;align=center;" vertex="1" parent="1">
          <mxGeometry x="1560" y="1480" width="80" height="40" as="geometry" />
        </mxCell>
        <mxCell id="6AL398sb1X5Xjt_MEFjy-79" value="" style="endArrow=none;html=1;rounded=0;entryX=1;entryY=0.5;entryDx=0;entryDy=0;exitX=0;exitY=0.25;exitDx=0;exitDy=0;" edge="1" parent="1" source="6AL398sb1X5Xjt_MEFjy-3" target="6AL398sb1X5Xjt_MEFjy-78">
          <mxGeometry relative="1" as="geometry">
            <mxPoint x="1692" y="1540" as="sourcePoint" />
            <mxPoint x="1670" y="1546" as="targetPoint" />
          </mxGeometry>
        </mxCell>
        <mxCell id="6AL398sb1X5Xjt_MEFjy-80" value="apicultor" style="shape=table;startSize=30;container=1;collapsible=1;childLayout=tableLayout;fixedRows=1;rowLines=0;fontStyle=1;align=center;resizeLast=1;" vertex="1" parent="1">
          <mxGeometry x="320" y="220" width="250" height="120" as="geometry" />
        </mxCell>
        <mxCell id="6AL398sb1X5Xjt_MEFjy-81" value="" style="shape=tableRow;horizontal=0;startSize=0;swimlaneHead=0;swimlaneBody=0;fillColor=none;collapsible=0;dropTarget=0;points=[[0,0.5],[1,0.5]];portConstraint=eastwest;strokeColor=inherit;top=0;left=0;right=0;bottom=1;" vertex="1" parent="6AL398sb1X5Xjt_MEFjy-80">
          <mxGeometry y="30" width="250" height="30" as="geometry" />
        </mxCell>
        <mxCell id="6AL398sb1X5Xjt_MEFjy-82" value="PK" style="shape=partialRectangle;overflow=hidden;connectable=0;fillColor=none;strokeColor=inherit;top=0;left=0;bottom=0;right=0;fontStyle=1;" vertex="1" parent="6AL398sb1X5Xjt_MEFjy-81">
          <mxGeometry width="30" height="30" as="geometry">
            <mxRectangle width="30" height="30" as="alternateBounds" />
          </mxGeometry>
        </mxCell>
        <mxCell id="6AL398sb1X5Xjt_MEFjy-83" value="id_apicultor SERIAL " style="shape=partialRectangle;overflow=hidden;connectable=0;fillColor=none;align=left;strokeColor=inherit;top=0;left=0;bottom=0;right=0;spacingLeft=6;fontStyle=5;" vertex="1" parent="6AL398sb1X5Xjt_MEFjy-81">
          <mxGeometry x="30" width="220" height="30" as="geometry">
            <mxRectangle width="220" height="30" as="alternateBounds" />
          </mxGeometry>
        </mxCell>
        <mxCell id="6AL398sb1X5Xjt_MEFjy-84" value="" style="shape=tableRow;horizontal=0;startSize=0;swimlaneHead=0;swimlaneBody=0;fillColor=none;collapsible=0;dropTarget=0;points=[[0,0.5],[1,0.5]];portConstraint=eastwest;strokeColor=inherit;top=0;left=0;right=0;bottom=0;" vertex="1" parent="6AL398sb1X5Xjt_MEFjy-80">
          <mxGeometry y="60" width="250" height="30" as="geometry" />
        </mxCell>
        <mxCell id="6AL398sb1X5Xjt_MEFjy-85" value="" style="shape=partialRectangle;overflow=hidden;connectable=0;fillColor=none;strokeColor=inherit;top=0;left=0;bottom=0;right=0;" vertex="1" parent="6AL398sb1X5Xjt_MEFjy-84">
          <mxGeometry width="30" height="30" as="geometry">
            <mxRectangle width="30" height="30" as="alternateBounds" />
          </mxGeometry>
        </mxCell>
        <mxCell id="6AL398sb1X5Xjt_MEFjy-86" value="nombre VARCHAR(100) NOT NULL" style="shape=partialRectangle;overflow=hidden;connectable=0;fillColor=none;align=left;strokeColor=inherit;top=0;left=0;bottom=0;right=0;spacingLeft=6;" vertex="1" parent="6AL398sb1X5Xjt_MEFjy-84">
          <mxGeometry x="30" width="220" height="30" as="geometry">
            <mxRectangle width="220" height="30" as="alternateBounds" />
          </mxGeometry>
        </mxCell>
        <mxCell id="6AL398sb1X5Xjt_MEFjy-87" value="" style="shape=tableRow;horizontal=0;startSize=0;swimlaneHead=0;swimlaneBody=0;fillColor=none;collapsible=0;dropTarget=0;points=[[0,0.5],[1,0.5]];portConstraint=eastwest;strokeColor=inherit;top=0;left=0;right=0;bottom=0;" vertex="1" parent="6AL398sb1X5Xjt_MEFjy-80">
          <mxGeometry y="90" width="250" height="30" as="geometry" />
        </mxCell>
        <mxCell id="6AL398sb1X5Xjt_MEFjy-88" value="" style="shape=partialRectangle;overflow=hidden;connectable=0;fillColor=none;strokeColor=inherit;top=0;left=0;bottom=0;right=0;" vertex="1" parent="6AL398sb1X5Xjt_MEFjy-87">
          <mxGeometry width="30" height="30" as="geometry">
            <mxRectangle width="30" height="30" as="alternateBounds" />
          </mxGeometry>
        </mxCell>
        <mxCell id="6AL398sb1X5Xjt_MEFjy-89" value="apellido VARCHAR(100) NOT NULL" style="shape=partialRectangle;overflow=hidden;connectable=0;fillColor=none;align=left;strokeColor=inherit;top=0;left=0;bottom=0;right=0;spacingLeft=6;" vertex="1" parent="6AL398sb1X5Xjt_MEFjy-87">
          <mxGeometry x="30" width="220" height="30" as="geometry">
            <mxRectangle width="220" height="30" as="alternateBounds" />
          </mxGeometry>
        </mxCell>
        <mxCell id="6AL398sb1X5Xjt_MEFjy-90" value="apiarios" style="shape=table;startSize=30;container=1;collapsible=1;childLayout=tableLayout;fixedRows=1;rowLines=0;fontStyle=1;align=center;resizeLast=1;" vertex="1" parent="1">
          <mxGeometry x="630" y="220" width="450" height="240" as="geometry" />
        </mxCell>
        <mxCell id="6AL398sb1X5Xjt_MEFjy-91" value="" style="shape=tableRow;horizontal=0;startSize=0;swimlaneHead=0;swimlaneBody=0;fillColor=none;collapsible=0;dropTarget=0;points=[[0,0.5],[1,0.5]];portConstraint=eastwest;strokeColor=inherit;top=0;left=0;right=0;bottom=1;" vertex="1" parent="6AL398sb1X5Xjt_MEFjy-90">
          <mxGeometry y="30" width="450" height="30" as="geometry" />
        </mxCell>
        <mxCell id="6AL398sb1X5Xjt_MEFjy-92" value="FK" style="shape=partialRectangle;overflow=hidden;connectable=0;fillColor=none;strokeColor=inherit;top=0;left=0;bottom=0;right=0;fontStyle=1;" vertex="1" parent="6AL398sb1X5Xjt_MEFjy-91">
          <mxGeometry width="30" height="30" as="geometry">
            <mxRectangle width="30" height="30" as="alternateBounds" />
          </mxGeometry>
        </mxCell>
        <mxCell id="6AL398sb1X5Xjt_MEFjy-93" value="id_apicultor INTEGER NOT NULL REFERENCES apicultor(id_apicultor)" style="shape=partialRectangle;overflow=hidden;connectable=0;fillColor=none;align=left;strokeColor=inherit;top=0;left=0;bottom=0;right=0;spacingLeft=6;fontStyle=5;" vertex="1" parent="6AL398sb1X5Xjt_MEFjy-91">
          <mxGeometry x="30" width="420" height="30" as="geometry">
            <mxRectangle width="420" height="30" as="alternateBounds" />
          </mxGeometry>
        </mxCell>
        <mxCell id="6AL398sb1X5Xjt_MEFjy-94" value="" style="shape=tableRow;horizontal=0;startSize=0;swimlaneHead=0;swimlaneBody=0;fillColor=none;collapsible=0;dropTarget=0;points=[[0,0.5],[1,0.5]];portConstraint=eastwest;strokeColor=inherit;top=0;left=0;right=0;bottom=1;" vertex="1" parent="6AL398sb1X5Xjt_MEFjy-90">
          <mxGeometry y="60" width="450" height="30" as="geometry" />
        </mxCell>
        <mxCell id="6AL398sb1X5Xjt_MEFjy-95" value="PK" style="shape=partialRectangle;overflow=hidden;connectable=0;fillColor=none;strokeColor=inherit;top=0;left=0;bottom=0;right=0;fontStyle=1;" vertex="1" parent="6AL398sb1X5Xjt_MEFjy-94">
          <mxGeometry width="30" height="30" as="geometry">
            <mxRectangle width="30" height="30" as="alternateBounds" />
          </mxGeometry>
        </mxCell>
        <mxCell id="6AL398sb1X5Xjt_MEFjy-96" value="id_apiario SERIAL " style="shape=partialRectangle;overflow=hidden;connectable=0;fillColor=none;align=left;strokeColor=inherit;top=0;left=0;bottom=0;right=0;spacingLeft=6;fontStyle=5;" vertex="1" parent="6AL398sb1X5Xjt_MEFjy-94">
          <mxGeometry x="30" width="420" height="30" as="geometry">
            <mxRectangle width="420" height="30" as="alternateBounds" />
          </mxGeometry>
        </mxCell>
        <mxCell id="6AL398sb1X5Xjt_MEFjy-97" value="" style="shape=tableRow;horizontal=0;startSize=0;swimlaneHead=0;swimlaneBody=0;fillColor=none;collapsible=0;dropTarget=0;points=[[0,0.5],[1,0.5]];portConstraint=eastwest;strokeColor=inherit;top=0;left=0;right=0;bottom=0;" vertex="1" parent="6AL398sb1X5Xjt_MEFjy-90">
          <mxGeometry y="90" width="450" height="30" as="geometry" />
        </mxCell>
        <mxCell id="6AL398sb1X5Xjt_MEFjy-98" value="" style="shape=partialRectangle;overflow=hidden;connectable=0;fillColor=none;strokeColor=inherit;top=0;left=0;bottom=0;right=0;" vertex="1" parent="6AL398sb1X5Xjt_MEFjy-97">
          <mxGeometry width="30" height="30" as="geometry">
            <mxRectangle width="30" height="30" as="alternateBounds" />
          </mxGeometry>
        </mxCell>
        <mxCell id="6AL398sb1X5Xjt_MEFjy-99" value="nombre_apiario VARCHAR(100)" style="shape=partialRectangle;overflow=hidden;connectable=0;fillColor=none;align=left;strokeColor=inherit;top=0;left=0;bottom=0;right=0;spacingLeft=6;" vertex="1" parent="6AL398sb1X5Xjt_MEFjy-97">
          <mxGeometry x="30" width="420" height="30" as="geometry">
            <mxRectangle width="420" height="30" as="alternateBounds" />
          </mxGeometry>
        </mxCell>
        <mxCell id="6AL398sb1X5Xjt_MEFjy-100" value="" style="shape=tableRow;horizontal=0;startSize=0;swimlaneHead=0;swimlaneBody=0;fillColor=none;collapsible=0;dropTarget=0;points=[[0,0.5],[1,0.5]];portConstraint=eastwest;strokeColor=inherit;top=0;left=0;right=0;bottom=0;" vertex="1" parent="6AL398sb1X5Xjt_MEFjy-90">
          <mxGeometry y="120" width="450" height="30" as="geometry" />
        </mxCell>
        <mxCell id="6AL398sb1X5Xjt_MEFjy-101" value="" style="shape=partialRectangle;overflow=hidden;connectable=0;fillColor=none;strokeColor=inherit;top=0;left=0;bottom=0;right=0;" vertex="1" parent="6AL398sb1X5Xjt_MEFjy-100">
          <mxGeometry width="30" height="30" as="geometry">
            <mxRectangle width="30" height="30" as="alternateBounds" />
          </mxGeometry>
        </mxCell>
        <mxCell id="6AL398sb1X5Xjt_MEFjy-102" value="cant_colmenas INTEGER" style="shape=partialRectangle;overflow=hidden;connectable=0;fillColor=none;align=left;strokeColor=inherit;top=0;left=0;bottom=0;right=0;spacingLeft=6;" vertex="1" parent="6AL398sb1X5Xjt_MEFjy-100">
          <mxGeometry x="30" width="420" height="30" as="geometry">
            <mxRectangle width="420" height="30" as="alternateBounds" />
          </mxGeometry>
        </mxCell>
        <mxCell id="6AL398sb1X5Xjt_MEFjy-103" value="" style="shape=tableRow;horizontal=0;startSize=0;swimlaneHead=0;swimlaneBody=0;fillColor=none;collapsible=0;dropTarget=0;points=[[0,0.5],[1,0.5]];portConstraint=eastwest;strokeColor=inherit;top=0;left=0;right=0;bottom=0;" vertex="1" parent="6AL398sb1X5Xjt_MEFjy-90">
          <mxGeometry y="150" width="450" height="30" as="geometry" />
        </mxCell>
        <mxCell id="6AL398sb1X5Xjt_MEFjy-104" value="" style="shape=partialRectangle;overflow=hidden;connectable=0;fillColor=none;strokeColor=inherit;top=0;left=0;bottom=0;right=0;" vertex="1" parent="6AL398sb1X5Xjt_MEFjy-103">
          <mxGeometry width="30" height="30" as="geometry">
            <mxRectangle width="30" height="30" as="alternateBounds" />
          </mxGeometry>
        </mxCell>
        <mxCell id="6AL398sb1X5Xjt_MEFjy-105" value="localidad VARCHAR(100)" style="shape=partialRectangle;overflow=hidden;connectable=0;fillColor=none;align=left;strokeColor=inherit;top=0;left=0;bottom=0;right=0;spacingLeft=6;" vertex="1" parent="6AL398sb1X5Xjt_MEFjy-103">
          <mxGeometry x="30" width="420" height="30" as="geometry">
            <mxRectangle width="420" height="30" as="alternateBounds" />
          </mxGeometry>
        </mxCell>
        <mxCell id="6AL398sb1X5Xjt_MEFjy-106" value="" style="shape=tableRow;horizontal=0;startSize=0;swimlaneHead=0;swimlaneBody=0;fillColor=none;collapsible=0;dropTarget=0;points=[[0,0.5],[1,0.5]];portConstraint=eastwest;strokeColor=inherit;top=0;left=0;right=0;bottom=0;" vertex="1" parent="6AL398sb1X5Xjt_MEFjy-90">
          <mxGeometry y="180" width="450" height="30" as="geometry" />
        </mxCell>
        <mxCell id="6AL398sb1X5Xjt_MEFjy-107" value="" style="shape=partialRectangle;overflow=hidden;connectable=0;fillColor=none;strokeColor=inherit;top=0;left=0;bottom=0;right=0;" vertex="1" parent="6AL398sb1X5Xjt_MEFjy-106">
          <mxGeometry width="30" height="30" as="geometry">
            <mxRectangle width="30" height="30" as="alternateBounds" />
          </mxGeometry>
        </mxCell>
        <mxCell id="6AL398sb1X5Xjt_MEFjy-108" value="latitud DECIMAL (10,8)" style="shape=partialRectangle;overflow=hidden;connectable=0;fillColor=none;align=left;strokeColor=inherit;top=0;left=0;bottom=0;right=0;spacingLeft=6;" vertex="1" parent="6AL398sb1X5Xjt_MEFjy-106">
          <mxGeometry x="30" width="420" height="30" as="geometry">
            <mxRectangle width="420" height="30" as="alternateBounds" />
          </mxGeometry>
        </mxCell>
        <mxCell id="6AL398sb1X5Xjt_MEFjy-109" style="shape=tableRow;horizontal=0;startSize=0;swimlaneHead=0;swimlaneBody=0;fillColor=none;collapsible=0;dropTarget=0;points=[[0,0.5],[1,0.5]];portConstraint=eastwest;strokeColor=inherit;top=0;left=0;right=0;bottom=0;" vertex="1" parent="6AL398sb1X5Xjt_MEFjy-90">
          <mxGeometry y="210" width="450" height="30" as="geometry" />
        </mxCell>
        <mxCell id="6AL398sb1X5Xjt_MEFjy-110" style="shape=partialRectangle;overflow=hidden;connectable=0;fillColor=none;strokeColor=inherit;top=0;left=0;bottom=0;right=0;" vertex="1" parent="6AL398sb1X5Xjt_MEFjy-109">
          <mxGeometry width="30" height="30" as="geometry">
            <mxRectangle width="30" height="30" as="alternateBounds" />
          </mxGeometry>
        </mxCell>
        <mxCell id="6AL398sb1X5Xjt_MEFjy-111" value="longitud DECIMAL (11,8)" style="shape=partialRectangle;overflow=hidden;connectable=0;fillColor=none;align=left;strokeColor=inherit;top=0;left=0;bottom=0;right=0;spacingLeft=6;" vertex="1" parent="6AL398sb1X5Xjt_MEFjy-109">
          <mxGeometry x="30" width="420" height="30" as="geometry">
            <mxRectangle width="420" height="30" as="alternateBounds" />
          </mxGeometry>
        </mxCell>
        <mxCell id="6AL398sb1X5Xjt_MEFjy-112" value="tambor" style="shape=table;startSize=30;container=1;collapsible=1;childLayout=tableLayout;fixedRows=1;rowLines=0;fontStyle=1;align=center;resizeLast=1;" vertex="1" parent="1">
          <mxGeometry x="1520" y="280" width="320" height="90" as="geometry" />
        </mxCell>
        <mxCell id="6AL398sb1X5Xjt_MEFjy-113" value="" style="shape=tableRow;horizontal=0;startSize=0;swimlaneHead=0;swimlaneBody=0;fillColor=none;collapsible=0;dropTarget=0;points=[[0,0.5],[1,0.5]];portConstraint=eastwest;strokeColor=inherit;top=0;left=0;right=0;bottom=1;" vertex="1" parent="6AL398sb1X5Xjt_MEFjy-112">
          <mxGeometry y="30" width="320" height="30" as="geometry" />
        </mxCell>
        <mxCell id="6AL398sb1X5Xjt_MEFjy-114" value="PK" style="shape=partialRectangle;overflow=hidden;connectable=0;fillColor=none;strokeColor=inherit;top=0;left=0;bottom=0;right=0;fontStyle=1;" vertex="1" parent="6AL398sb1X5Xjt_MEFjy-113">
          <mxGeometry width="30" height="30" as="geometry">
            <mxRectangle width="30" height="30" as="alternateBounds" />
          </mxGeometry>
        </mxCell>
        <mxCell id="6AL398sb1X5Xjt_MEFjy-115" value="id_tambor SERIAL " style="shape=partialRectangle;overflow=hidden;connectable=0;fillColor=none;align=left;strokeColor=inherit;top=0;left=0;bottom=0;right=0;spacingLeft=6;fontStyle=5;" vertex="1" parent="6AL398sb1X5Xjt_MEFjy-113">
          <mxGeometry x="30" width="290" height="30" as="geometry">
            <mxRectangle width="290" height="30" as="alternateBounds" />
          </mxGeometry>
        </mxCell>
        <mxCell id="6AL398sb1X5Xjt_MEFjy-116" value="" style="shape=tableRow;horizontal=0;startSize=0;swimlaneHead=0;swimlaneBody=0;fillColor=none;collapsible=0;dropTarget=0;points=[[0,0.5],[1,0.5]];portConstraint=eastwest;strokeColor=inherit;top=0;left=0;right=0;bottom=0;" vertex="1" parent="6AL398sb1X5Xjt_MEFjy-112">
          <mxGeometry y="60" width="320" height="30" as="geometry" />
        </mxCell>
        <mxCell id="6AL398sb1X5Xjt_MEFjy-117" value="" style="shape=partialRectangle;overflow=hidden;connectable=0;fillColor=none;strokeColor=inherit;top=0;left=0;bottom=0;right=0;" vertex="1" parent="6AL398sb1X5Xjt_MEFjy-116">
          <mxGeometry width="30" height="30" as="geometry">
            <mxRectangle width="30" height="30" as="alternateBounds" />
          </mxGeometry>
        </mxCell>
        <mxCell id="6AL398sb1X5Xjt_MEFjy-118" value="num_registro VARCHAR(50) NOT NULL UNIQUE" style="shape=partialRectangle;overflow=hidden;connectable=0;fillColor=none;align=left;strokeColor=inherit;top=0;left=0;bottom=0;right=0;spacingLeft=6;" vertex="1" parent="6AL398sb1X5Xjt_MEFjy-116">
          <mxGeometry x="30" width="290" height="30" as="geometry">
            <mxRectangle width="290" height="30" as="alternateBounds" />
          </mxGeometry>
        </mxCell>
        <mxCell id="6AL398sb1X5Xjt_MEFjy-119" value="tambor_api" style="shape=table;startSize=30;container=1;collapsible=1;childLayout=tableLayout;fixedRows=1;rowLines=0;fontStyle=1;align=center;resizeLast=1;" vertex="1" parent="1">
          <mxGeometry x="1130" y="250" width="320" height="120" as="geometry" />
        </mxCell>
        <mxCell id="6AL398sb1X5Xjt_MEFjy-120" value="" style="shape=tableRow;horizontal=0;startSize=0;swimlaneHead=0;swimlaneBody=0;fillColor=none;collapsible=0;dropTarget=0;points=[[0,0.5],[1,0.5]];portConstraint=eastwest;strokeColor=inherit;top=0;left=0;right=0;bottom=1;" vertex="1" parent="6AL398sb1X5Xjt_MEFjy-119">
          <mxGeometry y="30" width="320" height="30" as="geometry" />
        </mxCell>
        <mxCell id="6AL398sb1X5Xjt_MEFjy-121" value="PK" style="shape=partialRectangle;overflow=hidden;connectable=0;fillColor=none;strokeColor=inherit;top=0;left=0;bottom=0;right=0;fontStyle=1;" vertex="1" parent="6AL398sb1X5Xjt_MEFjy-120">
          <mxGeometry width="30" height="30" as="geometry">
            <mxRectangle width="30" height="30" as="alternateBounds" />
          </mxGeometry>
        </mxCell>
        <mxCell id="6AL398sb1X5Xjt_MEFjy-122" value="id_apiario INTEGER NOT NULL REFERENCES apiarios(id_apiario)" style="shape=partialRectangle;overflow=hidden;connectable=0;fillColor=none;align=left;strokeColor=inherit;top=0;left=0;bottom=0;right=0;spacingLeft=6;fontStyle=5;" vertex="1" parent="6AL398sb1X5Xjt_MEFjy-120">
          <mxGeometry x="30" width="290" height="30" as="geometry">
            <mxRectangle width="290" height="30" as="alternateBounds" />
          </mxGeometry>
        </mxCell>
        <mxCell id="6AL398sb1X5Xjt_MEFjy-123" value="" style="shape=tableRow;horizontal=0;startSize=0;swimlaneHead=0;swimlaneBody=0;fillColor=none;collapsible=0;dropTarget=0;points=[[0,0.5],[1,0.5]];portConstraint=eastwest;strokeColor=inherit;top=0;left=0;right=0;bottom=1;" vertex="1" parent="6AL398sb1X5Xjt_MEFjy-119">
          <mxGeometry y="60" width="320" height="30" as="geometry" />
        </mxCell>
        <mxCell id="6AL398sb1X5Xjt_MEFjy-124" value="PK" style="shape=partialRectangle;overflow=hidden;connectable=0;fillColor=none;strokeColor=inherit;top=0;left=0;bottom=0;right=0;fontStyle=1;" vertex="1" parent="6AL398sb1X5Xjt_MEFjy-123">
          <mxGeometry width="30" height="30" as="geometry">
            <mxRectangle width="30" height="30" as="alternateBounds" />
          </mxGeometry>
        </mxCell>
        <mxCell id="6AL398sb1X5Xjt_MEFjy-125" value="id_tambor INTEGER NOT NULL REFERENCES tambor(id_tambor)" style="shape=partialRectangle;overflow=hidden;connectable=0;fillColor=none;align=left;strokeColor=inherit;top=0;left=0;bottom=0;right=0;spacingLeft=6;fontStyle=5;" vertex="1" parent="6AL398sb1X5Xjt_MEFjy-123">
          <mxGeometry x="30" width="290" height="30" as="geometry">
            <mxRectangle width="290" height="30" as="alternateBounds" />
          </mxGeometry>
        </mxCell>
        <mxCell id="6AL398sb1X5Xjt_MEFjy-126" style="shape=tableRow;horizontal=0;startSize=0;swimlaneHead=0;swimlaneBody=0;fillColor=none;collapsible=0;dropTarget=0;points=[[0,0.5],[1,0.5]];portConstraint=eastwest;strokeColor=inherit;top=0;left=0;right=0;bottom=1;" vertex="1" parent="6AL398sb1X5Xjt_MEFjy-119">
          <mxGeometry y="90" width="320" height="30" as="geometry" />
        </mxCell>
        <mxCell id="6AL398sb1X5Xjt_MEFjy-127" style="shape=partialRectangle;overflow=hidden;connectable=0;fillColor=none;strokeColor=inherit;top=0;left=0;bottom=0;right=0;fontStyle=1;" vertex="1" parent="6AL398sb1X5Xjt_MEFjy-126">
          <mxGeometry width="30" height="30" as="geometry">
            <mxRectangle width="30" height="30" as="alternateBounds" />
          </mxGeometry>
        </mxCell>
        <mxCell id="6AL398sb1X5Xjt_MEFjy-128" value="fecha_asignacion DATE " style="shape=partialRectangle;overflow=hidden;connectable=0;fillColor=none;align=left;strokeColor=inherit;top=0;left=0;bottom=0;right=0;spacingLeft=6;fontStyle=1;" vertex="1" parent="6AL398sb1X5Xjt_MEFjy-126">
          <mxGeometry x="30" width="290" height="30" as="geometry">
            <mxRectangle width="290" height="30" as="alternateBounds" />
          </mxGeometry>
        </mxCell>
        <mxCell id="6AL398sb1X5Xjt_MEFjy-129" value="muestra" style="shape=table;startSize=30;container=1;collapsible=1;childLayout=tableLayout;fixedRows=1;rowLines=0;fontStyle=1;align=center;resizeLast=1;" vertex="1" parent="1">
          <mxGeometry x="2200" y="620" width="440" height="210" as="geometry" />
        </mxCell>
        <mxCell id="6AL398sb1X5Xjt_MEFjy-130" value="" style="shape=tableRow;horizontal=0;startSize=0;swimlaneHead=0;swimlaneBody=0;fillColor=none;collapsible=0;dropTarget=0;points=[[0,0.5],[1,0.5]];portConstraint=eastwest;strokeColor=inherit;top=0;left=0;right=0;bottom=1;" vertex="1" parent="6AL398sb1X5Xjt_MEFjy-129">
          <mxGeometry y="30" width="440" height="30" as="geometry" />
        </mxCell>
        <mxCell id="6AL398sb1X5Xjt_MEFjy-131" value="FK" style="shape=partialRectangle;overflow=hidden;connectable=0;fillColor=none;strokeColor=inherit;top=0;left=0;bottom=0;right=0;fontStyle=1;" vertex="1" parent="6AL398sb1X5Xjt_MEFjy-130">
          <mxGeometry width="30" height="30" as="geometry">
            <mxRectangle width="30" height="30" as="alternateBounds" />
          </mxGeometry>
        </mxCell>
        <mxCell id="6AL398sb1X5Xjt_MEFjy-132" value="id_analista INTEGER NOT NULL REFERENCES  analista(id_analista)" style="shape=partialRectangle;overflow=hidden;connectable=0;fillColor=none;align=left;strokeColor=inherit;top=0;left=0;bottom=0;right=0;spacingLeft=6;fontStyle=5;" vertex="1" parent="6AL398sb1X5Xjt_MEFjy-130">
          <mxGeometry x="30" width="410" height="30" as="geometry">
            <mxRectangle width="410" height="30" as="alternateBounds" />
          </mxGeometry>
        </mxCell>
        <mxCell id="6AL398sb1X5Xjt_MEFjy-133" value="" style="shape=tableRow;horizontal=0;startSize=0;swimlaneHead=0;swimlaneBody=0;fillColor=none;collapsible=0;dropTarget=0;points=[[0,0.5],[1,0.5]];portConstraint=eastwest;strokeColor=inherit;top=0;left=0;right=0;bottom=1;" vertex="1" parent="6AL398sb1X5Xjt_MEFjy-129">
          <mxGeometry y="60" width="440" height="30" as="geometry" />
        </mxCell>
        <mxCell id="6AL398sb1X5Xjt_MEFjy-134" value="PK" style="shape=partialRectangle;overflow=hidden;connectable=0;fillColor=none;strokeColor=inherit;top=0;left=0;bottom=0;right=0;fontStyle=1;" vertex="1" parent="6AL398sb1X5Xjt_MEFjy-133">
          <mxGeometry width="30" height="30" as="geometry">
            <mxRectangle width="30" height="30" as="alternateBounds" />
          </mxGeometry>
        </mxCell>
        <mxCell id="6AL398sb1X5Xjt_MEFjy-135" value="id_muestra SERIAL " style="shape=partialRectangle;overflow=hidden;connectable=0;fillColor=none;align=left;strokeColor=inherit;top=0;left=0;bottom=0;right=0;spacingLeft=6;fontStyle=5;" vertex="1" parent="6AL398sb1X5Xjt_MEFjy-133">
          <mxGeometry x="30" width="410" height="30" as="geometry">
            <mxRectangle width="410" height="30" as="alternateBounds" />
          </mxGeometry>
        </mxCell>
        <mxCell id="6AL398sb1X5Xjt_MEFjy-136" value="" style="shape=tableRow;horizontal=0;startSize=0;swimlaneHead=0;swimlaneBody=0;fillColor=none;collapsible=0;dropTarget=0;points=[[0,0.5],[1,0.5]];portConstraint=eastwest;strokeColor=inherit;top=0;left=0;right=0;bottom=0;" vertex="1" parent="6AL398sb1X5Xjt_MEFjy-129">
          <mxGeometry y="90" width="440" height="30" as="geometry" />
        </mxCell>
        <mxCell id="6AL398sb1X5Xjt_MEFjy-137" value="" style="shape=partialRectangle;overflow=hidden;connectable=0;fillColor=none;strokeColor=inherit;top=0;left=0;bottom=0;right=0;" vertex="1" parent="6AL398sb1X5Xjt_MEFjy-136">
          <mxGeometry width="30" height="30" as="geometry">
            <mxRectangle width="30" height="30" as="alternateBounds" />
          </mxGeometry>
        </mxCell>
        <mxCell id="6AL398sb1X5Xjt_MEFjy-138" value="fecha_extraccion DATE" style="shape=partialRectangle;overflow=hidden;connectable=0;fillColor=none;align=left;strokeColor=inherit;top=0;left=0;bottom=0;right=0;spacingLeft=6;" vertex="1" parent="6AL398sb1X5Xjt_MEFjy-136">
          <mxGeometry x="30" width="410" height="30" as="geometry">
            <mxRectangle width="410" height="30" as="alternateBounds" />
          </mxGeometry>
        </mxCell>
        <mxCell id="6AL398sb1X5Xjt_MEFjy-139" value="" style="shape=tableRow;horizontal=0;startSize=0;swimlaneHead=0;swimlaneBody=0;fillColor=none;collapsible=0;dropTarget=0;points=[[0,0.5],[1,0.5]];portConstraint=eastwest;strokeColor=inherit;top=0;left=0;right=0;bottom=0;" vertex="1" parent="6AL398sb1X5Xjt_MEFjy-129">
          <mxGeometry y="120" width="440" height="30" as="geometry" />
        </mxCell>
        <mxCell id="6AL398sb1X5Xjt_MEFjy-140" value="" style="shape=partialRectangle;overflow=hidden;connectable=0;fillColor=none;strokeColor=inherit;top=0;left=0;bottom=0;right=0;" vertex="1" parent="6AL398sb1X5Xjt_MEFjy-139">
          <mxGeometry width="30" height="30" as="geometry">
            <mxRectangle width="30" height="30" as="alternateBounds" />
          </mxGeometry>
        </mxCell>
        <mxCell id="6AL398sb1X5Xjt_MEFjy-141" value="fecha_analisis DATE" style="shape=partialRectangle;overflow=hidden;connectable=0;fillColor=none;align=left;strokeColor=inherit;top=0;left=0;bottom=0;right=0;spacingLeft=6;" vertex="1" parent="6AL398sb1X5Xjt_MEFjy-139">
          <mxGeometry x="30" width="410" height="30" as="geometry">
            <mxRectangle width="410" height="30" as="alternateBounds" />
          </mxGeometry>
        </mxCell>
        <mxCell id="6AL398sb1X5Xjt_MEFjy-142" value="" style="shape=tableRow;horizontal=0;startSize=0;swimlaneHead=0;swimlaneBody=0;fillColor=none;collapsible=0;dropTarget=0;points=[[0,0.5],[1,0.5]];portConstraint=eastwest;strokeColor=inherit;top=0;left=0;right=0;bottom=0;" vertex="1" parent="6AL398sb1X5Xjt_MEFjy-129">
          <mxGeometry y="150" width="440" height="30" as="geometry" />
        </mxCell>
        <mxCell id="6AL398sb1X5Xjt_MEFjy-143" value="" style="shape=partialRectangle;overflow=hidden;connectable=0;fillColor=none;strokeColor=inherit;top=0;left=0;bottom=0;right=0;" vertex="1" parent="6AL398sb1X5Xjt_MEFjy-142">
          <mxGeometry width="30" height="30" as="geometry">
            <mxRectangle width="30" height="30" as="alternateBounds" />
          </mxGeometry>
        </mxCell>
        <mxCell id="6AL398sb1X5Xjt_MEFjy-144" value="num_registro VARCHAR(50)" style="shape=partialRectangle;overflow=hidden;connectable=0;fillColor=none;align=left;strokeColor=inherit;top=0;left=0;bottom=0;right=0;spacingLeft=6;" vertex="1" parent="6AL398sb1X5Xjt_MEFjy-142">
          <mxGeometry x="30" width="410" height="30" as="geometry">
            <mxRectangle width="410" height="30" as="alternateBounds" />
          </mxGeometry>
        </mxCell>
        <mxCell id="6AL398sb1X5Xjt_MEFjy-145" value="" style="shape=tableRow;horizontal=0;startSize=0;swimlaneHead=0;swimlaneBody=0;fillColor=none;collapsible=0;dropTarget=0;points=[[0,0.5],[1,0.5]];portConstraint=eastwest;strokeColor=inherit;top=0;left=0;right=0;bottom=0;" vertex="1" parent="6AL398sb1X5Xjt_MEFjy-129">
          <mxGeometry y="180" width="440" height="30" as="geometry" />
        </mxCell>
        <mxCell id="6AL398sb1X5Xjt_MEFjy-146" value="" style="shape=partialRectangle;overflow=hidden;connectable=0;fillColor=none;strokeColor=inherit;top=0;left=0;bottom=0;right=0;" vertex="1" parent="6AL398sb1X5Xjt_MEFjy-145">
          <mxGeometry width="30" height="30" as="geometry">
            <mxRectangle width="30" height="30" as="alternateBounds" />
          </mxGeometry>
        </mxCell>
        <mxCell id="6AL398sb1X5Xjt_MEFjy-147" value="observaciones TEXT" style="shape=partialRectangle;overflow=hidden;connectable=0;fillColor=none;align=left;strokeColor=inherit;top=0;left=0;bottom=0;right=0;spacingLeft=6;" vertex="1" parent="6AL398sb1X5Xjt_MEFjy-145">
          <mxGeometry x="30" width="410" height="30" as="geometry">
            <mxRectangle width="410" height="30" as="alternateBounds" />
          </mxGeometry>
        </mxCell>
        <mxCell id="6AL398sb1X5Xjt_MEFjy-148" value="muestra_tambor" style="shape=table;startSize=30;container=1;collapsible=1;childLayout=tableLayout;fixedRows=1;rowLines=0;fontStyle=1;align=center;resizeLast=1;" vertex="1" parent="1">
          <mxGeometry x="1880" y="420" width="320" height="120" as="geometry" />
        </mxCell>
        <mxCell id="6AL398sb1X5Xjt_MEFjy-149" value="" style="shape=tableRow;horizontal=0;startSize=0;swimlaneHead=0;swimlaneBody=0;fillColor=none;collapsible=0;dropTarget=0;points=[[0,0.5],[1,0.5]];portConstraint=eastwest;strokeColor=inherit;top=0;left=0;right=0;bottom=1;" vertex="1" parent="6AL398sb1X5Xjt_MEFjy-148">
          <mxGeometry y="30" width="320" height="30" as="geometry" />
        </mxCell>
        <mxCell id="6AL398sb1X5Xjt_MEFjy-150" value="PK" style="shape=partialRectangle;overflow=hidden;connectable=0;fillColor=none;strokeColor=inherit;top=0;left=0;bottom=0;right=0;fontStyle=1;" vertex="1" parent="6AL398sb1X5Xjt_MEFjy-149">
          <mxGeometry width="30" height="30" as="geometry">
            <mxRectangle width="30" height="30" as="alternateBounds" />
          </mxGeometry>
        </mxCell>
        <mxCell id="6AL398sb1X5Xjt_MEFjy-151" value="id_tambor INTEGER NOT NULL REFERENCES tambor(id_tambor)" style="shape=partialRectangle;overflow=hidden;connectable=0;fillColor=none;align=left;strokeColor=inherit;top=0;left=0;bottom=0;right=0;spacingLeft=6;fontStyle=5;" vertex="1" parent="6AL398sb1X5Xjt_MEFjy-149">
          <mxGeometry x="30" width="290" height="30" as="geometry">
            <mxRectangle width="290" height="30" as="alternateBounds" />
          </mxGeometry>
        </mxCell>
        <mxCell id="6AL398sb1X5Xjt_MEFjy-152" value="" style="shape=tableRow;horizontal=0;startSize=0;swimlaneHead=0;swimlaneBody=0;fillColor=none;collapsible=0;dropTarget=0;points=[[0,0.5],[1,0.5]];portConstraint=eastwest;strokeColor=inherit;top=0;left=0;right=0;bottom=1;" vertex="1" parent="6AL398sb1X5Xjt_MEFjy-148">
          <mxGeometry y="60" width="320" height="30" as="geometry" />
        </mxCell>
        <mxCell id="6AL398sb1X5Xjt_MEFjy-153" value="PK" style="shape=partialRectangle;overflow=hidden;connectable=0;fillColor=none;strokeColor=inherit;top=0;left=0;bottom=0;right=0;fontStyle=1;" vertex="1" parent="6AL398sb1X5Xjt_MEFjy-152">
          <mxGeometry width="30" height="30" as="geometry">
            <mxRectangle width="30" height="30" as="alternateBounds" />
          </mxGeometry>
        </mxCell>
        <mxCell id="6AL398sb1X5Xjt_MEFjy-154" value="id_muestra INTEGER NOT NULL REFERENCES muestra(id_muestra)" style="shape=partialRectangle;overflow=hidden;connectable=0;fillColor=none;align=left;strokeColor=inherit;top=0;left=0;bottom=0;right=0;spacingLeft=6;fontStyle=5;" vertex="1" parent="6AL398sb1X5Xjt_MEFjy-152">
          <mxGeometry x="30" width="290" height="30" as="geometry">
            <mxRectangle width="290" height="30" as="alternateBounds" />
          </mxGeometry>
        </mxCell>
        <mxCell id="6AL398sb1X5Xjt_MEFjy-155" style="shape=tableRow;horizontal=0;startSize=0;swimlaneHead=0;swimlaneBody=0;fillColor=none;collapsible=0;dropTarget=0;points=[[0,0.5],[1,0.5]];portConstraint=eastwest;strokeColor=inherit;top=0;left=0;right=0;bottom=1;" vertex="1" parent="6AL398sb1X5Xjt_MEFjy-148">
          <mxGeometry y="90" width="320" height="30" as="geometry" />
        </mxCell>
        <mxCell id="6AL398sb1X5Xjt_MEFjy-156" style="shape=partialRectangle;overflow=hidden;connectable=0;fillColor=none;strokeColor=inherit;top=0;left=0;bottom=0;right=0;fontStyle=1;" vertex="1" parent="6AL398sb1X5Xjt_MEFjy-155">
          <mxGeometry width="30" height="30" as="geometry">
            <mxRectangle width="30" height="30" as="alternateBounds" />
          </mxGeometry>
        </mxCell>
        <mxCell id="6AL398sb1X5Xjt_MEFjy-157" value="fecha_asociacion DATE" style="shape=partialRectangle;overflow=hidden;connectable=0;fillColor=none;align=left;strokeColor=inherit;top=0;left=0;bottom=0;right=0;spacingLeft=6;fontStyle=1;" vertex="1" parent="6AL398sb1X5Xjt_MEFjy-155">
          <mxGeometry x="30" width="290" height="30" as="geometry">
            <mxRectangle width="290" height="30" as="alternateBounds" />
          </mxGeometry>
        </mxCell>
        <mxCell id="6AL398sb1X5Xjt_MEFjy-158" value="analista" style="shape=table;startSize=30;container=1;collapsible=1;childLayout=tableLayout;fixedRows=1;rowLines=0;fontStyle=1;align=center;resizeLast=1;" vertex="1" parent="1">
          <mxGeometry x="1875" y="620" width="190" height="150" as="geometry" />
        </mxCell>
        <mxCell id="6AL398sb1X5Xjt_MEFjy-159" value="" style="shape=tableRow;horizontal=0;startSize=0;swimlaneHead=0;swimlaneBody=0;fillColor=none;collapsible=0;dropTarget=0;points=[[0,0.5],[1,0.5]];portConstraint=eastwest;strokeColor=inherit;top=0;left=0;right=0;bottom=1;" vertex="1" parent="6AL398sb1X5Xjt_MEFjy-158">
          <mxGeometry y="30" width="190" height="30" as="geometry" />
        </mxCell>
        <mxCell id="6AL398sb1X5Xjt_MEFjy-160" value="PK" style="shape=partialRectangle;overflow=hidden;connectable=0;fillColor=none;strokeColor=inherit;top=0;left=0;bottom=0;right=0;fontStyle=1;" vertex="1" parent="6AL398sb1X5Xjt_MEFjy-159">
          <mxGeometry width="30" height="30" as="geometry">
            <mxRectangle width="30" height="30" as="alternateBounds" />
          </mxGeometry>
        </mxCell>
        <mxCell id="6AL398sb1X5Xjt_MEFjy-161" value="id_analista SERIAL " style="shape=partialRectangle;overflow=hidden;connectable=0;fillColor=none;align=left;strokeColor=inherit;top=0;left=0;bottom=0;right=0;spacingLeft=6;fontStyle=5;" vertex="1" parent="6AL398sb1X5Xjt_MEFjy-159">
          <mxGeometry x="30" width="160" height="30" as="geometry">
            <mxRectangle width="160" height="30" as="alternateBounds" />
          </mxGeometry>
        </mxCell>
        <mxCell id="6AL398sb1X5Xjt_MEFjy-162" value="" style="shape=tableRow;horizontal=0;startSize=0;swimlaneHead=0;swimlaneBody=0;fillColor=none;collapsible=0;dropTarget=0;points=[[0,0.5],[1,0.5]];portConstraint=eastwest;strokeColor=inherit;top=0;left=0;right=0;bottom=0;" vertex="1" parent="6AL398sb1X5Xjt_MEFjy-158">
          <mxGeometry y="60" width="190" height="30" as="geometry" />
        </mxCell>
        <mxCell id="6AL398sb1X5Xjt_MEFjy-163" value="" style="shape=partialRectangle;overflow=hidden;connectable=0;fillColor=none;strokeColor=inherit;top=0;left=0;bottom=0;right=0;" vertex="1" parent="6AL398sb1X5Xjt_MEFjy-162">
          <mxGeometry width="30" height="30" as="geometry">
            <mxRectangle width="30" height="30" as="alternateBounds" />
          </mxGeometry>
        </mxCell>
        <mxCell id="6AL398sb1X5Xjt_MEFjy-164" value="nombres VARCHAR(100)" style="shape=partialRectangle;overflow=hidden;connectable=0;fillColor=none;align=left;strokeColor=inherit;top=0;left=0;bottom=0;right=0;spacingLeft=6;" vertex="1" parent="6AL398sb1X5Xjt_MEFjy-162">
          <mxGeometry x="30" width="160" height="30" as="geometry">
            <mxRectangle width="160" height="30" as="alternateBounds" />
          </mxGeometry>
        </mxCell>
        <mxCell id="6AL398sb1X5Xjt_MEFjy-165" value="" style="shape=tableRow;horizontal=0;startSize=0;swimlaneHead=0;swimlaneBody=0;fillColor=none;collapsible=0;dropTarget=0;points=[[0,0.5],[1,0.5]];portConstraint=eastwest;strokeColor=inherit;top=0;left=0;right=0;bottom=0;" vertex="1" parent="6AL398sb1X5Xjt_MEFjy-158">
          <mxGeometry y="90" width="190" height="30" as="geometry" />
        </mxCell>
        <mxCell id="6AL398sb1X5Xjt_MEFjy-166" value="" style="shape=partialRectangle;overflow=hidden;connectable=0;fillColor=none;strokeColor=inherit;top=0;left=0;bottom=0;right=0;" vertex="1" parent="6AL398sb1X5Xjt_MEFjy-165">
          <mxGeometry width="30" height="30" as="geometry">
            <mxRectangle width="30" height="30" as="alternateBounds" />
          </mxGeometry>
        </mxCell>
        <mxCell id="6AL398sb1X5Xjt_MEFjy-167" value="apellidos VARCHAR(100)" style="shape=partialRectangle;overflow=hidden;connectable=0;fillColor=none;align=left;strokeColor=inherit;top=0;left=0;bottom=0;right=0;spacingLeft=6;" vertex="1" parent="6AL398sb1X5Xjt_MEFjy-165">
          <mxGeometry x="30" width="160" height="30" as="geometry">
            <mxRectangle width="160" height="30" as="alternateBounds" />
          </mxGeometry>
        </mxCell>
        <mxCell id="6AL398sb1X5Xjt_MEFjy-168" value="" style="shape=tableRow;horizontal=0;startSize=0;swimlaneHead=0;swimlaneBody=0;fillColor=none;collapsible=0;dropTarget=0;points=[[0,0.5],[1,0.5]];portConstraint=eastwest;strokeColor=inherit;top=0;left=0;right=0;bottom=0;" vertex="1" parent="6AL398sb1X5Xjt_MEFjy-158">
          <mxGeometry y="120" width="190" height="30" as="geometry" />
        </mxCell>
        <mxCell id="6AL398sb1X5Xjt_MEFjy-169" value="" style="shape=partialRectangle;overflow=hidden;connectable=0;fillColor=none;strokeColor=inherit;top=0;left=0;bottom=0;right=0;" vertex="1" parent="6AL398sb1X5Xjt_MEFjy-168">
          <mxGeometry width="30" height="30" as="geometry">
            <mxRectangle width="30" height="30" as="alternateBounds" />
          </mxGeometry>
        </mxCell>
        <mxCell id="6AL398sb1X5Xjt_MEFjy-170" value="contacto VARCHAR(100)" style="shape=partialRectangle;overflow=hidden;connectable=0;fillColor=none;align=left;strokeColor=inherit;top=0;left=0;bottom=0;right=0;spacingLeft=6;" vertex="1" parent="6AL398sb1X5Xjt_MEFjy-168">
          <mxGeometry x="30" width="160" height="30" as="geometry">
            <mxRectangle width="160" height="30" as="alternateBounds" />
          </mxGeometry>
        </mxCell>
        <mxCell id="6AL398sb1X5Xjt_MEFjy-171" value="especies" style="shape=table;startSize=30;container=1;collapsible=1;childLayout=tableLayout;fixedRows=1;rowLines=0;fontStyle=1;align=center;resizeLast=1;" vertex="1" parent="1">
          <mxGeometry x="3240" y="620" width="300" height="150" as="geometry" />
        </mxCell>
        <mxCell id="6AL398sb1X5Xjt_MEFjy-172" value="" style="shape=tableRow;horizontal=0;startSize=0;swimlaneHead=0;swimlaneBody=0;fillColor=none;collapsible=0;dropTarget=0;points=[[0,0.5],[1,0.5]];portConstraint=eastwest;strokeColor=inherit;top=0;left=0;right=0;bottom=1;" vertex="1" parent="6AL398sb1X5Xjt_MEFjy-171">
          <mxGeometry y="30" width="300" height="30" as="geometry" />
        </mxCell>
        <mxCell id="6AL398sb1X5Xjt_MEFjy-173" value="PK" style="shape=partialRectangle;overflow=hidden;connectable=0;fillColor=none;strokeColor=inherit;top=0;left=0;bottom=0;right=0;fontStyle=1;" vertex="1" parent="6AL398sb1X5Xjt_MEFjy-172">
          <mxGeometry width="30" height="30" as="geometry">
            <mxRectangle width="30" height="30" as="alternateBounds" />
          </mxGeometry>
        </mxCell>
        <mxCell id="6AL398sb1X5Xjt_MEFjy-174" value="id_especie SERIAL " style="shape=partialRectangle;overflow=hidden;connectable=0;fillColor=none;align=left;strokeColor=inherit;top=0;left=0;bottom=0;right=0;spacingLeft=6;fontStyle=5;" vertex="1" parent="6AL398sb1X5Xjt_MEFjy-172">
          <mxGeometry x="30" width="270" height="30" as="geometry">
            <mxRectangle width="270" height="30" as="alternateBounds" />
          </mxGeometry>
        </mxCell>
        <mxCell id="6AL398sb1X5Xjt_MEFjy-175" value="" style="shape=tableRow;horizontal=0;startSize=0;swimlaneHead=0;swimlaneBody=0;fillColor=none;collapsible=0;dropTarget=0;points=[[0,0.5],[1,0.5]];portConstraint=eastwest;strokeColor=inherit;top=0;left=0;right=0;bottom=0;" vertex="1" parent="6AL398sb1X5Xjt_MEFjy-171">
          <mxGeometry y="60" width="300" height="30" as="geometry" />
        </mxCell>
        <mxCell id="6AL398sb1X5Xjt_MEFjy-176" value="" style="shape=partialRectangle;overflow=hidden;connectable=0;fillColor=none;strokeColor=inherit;top=0;left=0;bottom=0;right=0;" vertex="1" parent="6AL398sb1X5Xjt_MEFjy-175">
          <mxGeometry width="30" height="30" as="geometry">
            <mxRectangle width="30" height="30" as="alternateBounds" />
          </mxGeometry>
        </mxCell>
        <mxCell id="6AL398sb1X5Xjt_MEFjy-177" value="nombre_cientifico VARCHAR(150) NOT NULL" style="shape=partialRectangle;overflow=hidden;connectable=0;fillColor=none;align=left;strokeColor=inherit;top=0;left=0;bottom=0;right=0;spacingLeft=6;" vertex="1" parent="6AL398sb1X5Xjt_MEFjy-175">
          <mxGeometry x="30" width="270" height="30" as="geometry">
            <mxRectangle width="270" height="30" as="alternateBounds" />
          </mxGeometry>
        </mxCell>
        <mxCell id="6AL398sb1X5Xjt_MEFjy-178" value="" style="shape=tableRow;horizontal=0;startSize=0;swimlaneHead=0;swimlaneBody=0;fillColor=none;collapsible=0;dropTarget=0;points=[[0,0.5],[1,0.5]];portConstraint=eastwest;strokeColor=inherit;top=0;left=0;right=0;bottom=0;" vertex="1" parent="6AL398sb1X5Xjt_MEFjy-171">
          <mxGeometry y="90" width="300" height="30" as="geometry" />
        </mxCell>
        <mxCell id="6AL398sb1X5Xjt_MEFjy-179" value="" style="shape=partialRectangle;overflow=hidden;connectable=0;fillColor=none;strokeColor=inherit;top=0;left=0;bottom=0;right=0;" vertex="1" parent="6AL398sb1X5Xjt_MEFjy-178">
          <mxGeometry width="30" height="30" as="geometry">
            <mxRectangle width="30" height="30" as="alternateBounds" />
          </mxGeometry>
        </mxCell>
        <mxCell id="6AL398sb1X5Xjt_MEFjy-180" value="nombre_comun VARCHAR(100)" style="shape=partialRectangle;overflow=hidden;connectable=0;fillColor=none;align=left;strokeColor=inherit;top=0;left=0;bottom=0;right=0;spacingLeft=6;" vertex="1" parent="6AL398sb1X5Xjt_MEFjy-178">
          <mxGeometry x="30" width="270" height="30" as="geometry">
            <mxRectangle width="270" height="30" as="alternateBounds" />
          </mxGeometry>
        </mxCell>
        <mxCell id="6AL398sb1X5Xjt_MEFjy-181" value="" style="shape=tableRow;horizontal=0;startSize=0;swimlaneHead=0;swimlaneBody=0;fillColor=none;collapsible=0;dropTarget=0;points=[[0,0.5],[1,0.5]];portConstraint=eastwest;strokeColor=inherit;top=0;left=0;right=0;bottom=0;" vertex="1" parent="6AL398sb1X5Xjt_MEFjy-171">
          <mxGeometry y="120" width="300" height="30" as="geometry" />
        </mxCell>
        <mxCell id="6AL398sb1X5Xjt_MEFjy-182" value="" style="shape=partialRectangle;overflow=hidden;connectable=0;fillColor=none;strokeColor=inherit;top=0;left=0;bottom=0;right=0;" vertex="1" parent="6AL398sb1X5Xjt_MEFjy-181">
          <mxGeometry width="30" height="30" as="geometry">
            <mxRectangle width="30" height="30" as="alternateBounds" />
          </mxGeometry>
        </mxCell>
        <mxCell id="6AL398sb1X5Xjt_MEFjy-183" value="familia VARCHAR(100)" style="shape=partialRectangle;overflow=hidden;connectable=0;fillColor=none;align=left;strokeColor=inherit;top=0;left=0;bottom=0;right=0;spacingLeft=6;" vertex="1" parent="6AL398sb1X5Xjt_MEFjy-181">
          <mxGeometry x="30" width="270" height="30" as="geometry">
            <mxRectangle width="270" height="30" as="alternateBounds" />
          </mxGeometry>
        </mxCell>
        <mxCell id="6AL398sb1X5Xjt_MEFjy-184" value="analisis_palinologico" style="shape=table;startSize=30;container=1;collapsible=1;childLayout=tableLayout;fixedRows=1;rowLines=0;fontStyle=1;align=center;resizeLast=1;" vertex="1" parent="1">
          <mxGeometry x="2720" y="620" width="440" height="210" as="geometry" />
        </mxCell>
        <mxCell id="6AL398sb1X5Xjt_MEFjy-185" value="" style="shape=tableRow;horizontal=0;startSize=0;swimlaneHead=0;swimlaneBody=0;fillColor=none;collapsible=0;dropTarget=0;points=[[0,0.5],[1,0.5]];portConstraint=eastwest;strokeColor=inherit;top=0;left=0;right=0;bottom=1;" vertex="1" parent="6AL398sb1X5Xjt_MEFjy-184">
          <mxGeometry y="30" width="440" height="30" as="geometry" />
        </mxCell>
        <mxCell id="6AL398sb1X5Xjt_MEFjy-186" value="FK" style="shape=partialRectangle;overflow=hidden;connectable=0;fillColor=none;strokeColor=inherit;top=0;left=0;bottom=0;right=0;fontStyle=1;" vertex="1" parent="6AL398sb1X5Xjt_MEFjy-185">
          <mxGeometry width="30" height="30" as="geometry">
            <mxRectangle width="30" height="30" as="alternateBounds" />
          </mxGeometry>
        </mxCell>
        <mxCell id="6AL398sb1X5Xjt_MEFjy-187" value="id_especie INTEGER NOT NULL REFERENCES especies(id_especie)" style="shape=partialRectangle;overflow=hidden;connectable=0;fillColor=none;align=left;strokeColor=inherit;top=0;left=0;bottom=0;right=0;spacingLeft=6;fontStyle=5;" vertex="1" parent="6AL398sb1X5Xjt_MEFjy-185">
          <mxGeometry x="30" width="410" height="30" as="geometry">
            <mxRectangle width="410" height="30" as="alternateBounds" />
          </mxGeometry>
        </mxCell>
        <mxCell id="6AL398sb1X5Xjt_MEFjy-188" value="" style="shape=tableRow;horizontal=0;startSize=0;swimlaneHead=0;swimlaneBody=0;fillColor=none;collapsible=0;dropTarget=0;points=[[0,0.5],[1,0.5]];portConstraint=eastwest;strokeColor=inherit;top=0;left=0;right=0;bottom=1;" vertex="1" parent="6AL398sb1X5Xjt_MEFjy-184">
          <mxGeometry y="60" width="440" height="30" as="geometry" />
        </mxCell>
        <mxCell id="6AL398sb1X5Xjt_MEFjy-189" value="FK" style="shape=partialRectangle;overflow=hidden;connectable=0;fillColor=none;strokeColor=inherit;top=0;left=0;bottom=0;right=0;fontStyle=1;" vertex="1" parent="6AL398sb1X5Xjt_MEFjy-188">
          <mxGeometry width="30" height="30" as="geometry">
            <mxRectangle width="30" height="30" as="alternateBounds" />
          </mxGeometry>
        </mxCell>
        <mxCell id="6AL398sb1X5Xjt_MEFjy-190" value="id_muestra INTEGER NOT NULL REFERENCES muestra(id_muestra)" style="shape=partialRectangle;overflow=hidden;connectable=0;fillColor=none;align=left;strokeColor=inherit;top=0;left=0;bottom=0;right=0;spacingLeft=6;fontStyle=5;" vertex="1" parent="6AL398sb1X5Xjt_MEFjy-188">
          <mxGeometry x="30" width="410" height="30" as="geometry">
            <mxRectangle width="410" height="30" as="alternateBounds" />
          </mxGeometry>
        </mxCell>
        <mxCell id="6AL398sb1X5Xjt_MEFjy-191" value="" style="shape=tableRow;horizontal=0;startSize=0;swimlaneHead=0;swimlaneBody=0;fillColor=none;collapsible=0;dropTarget=0;points=[[0,0.5],[1,0.5]];portConstraint=eastwest;strokeColor=inherit;top=0;left=0;right=0;bottom=1;" vertex="1" parent="6AL398sb1X5Xjt_MEFjy-184">
          <mxGeometry y="90" width="440" height="30" as="geometry" />
        </mxCell>
        <mxCell id="6AL398sb1X5Xjt_MEFjy-192" value="PK" style="shape=partialRectangle;overflow=hidden;connectable=0;fillColor=none;strokeColor=inherit;top=0;left=0;bottom=0;right=0;fontStyle=1;" vertex="1" parent="6AL398sb1X5Xjt_MEFjy-191">
          <mxGeometry width="30" height="30" as="geometry">
            <mxRectangle width="30" height="30" as="alternateBounds" />
          </mxGeometry>
        </mxCell>
        <mxCell id="6AL398sb1X5Xjt_MEFjy-193" value="id_palinologico SERIAL " style="shape=partialRectangle;overflow=hidden;connectable=0;fillColor=none;align=left;strokeColor=inherit;top=0;left=0;bottom=0;right=0;spacingLeft=6;fontStyle=5;" vertex="1" parent="6AL398sb1X5Xjt_MEFjy-191">
          <mxGeometry x="30" width="410" height="30" as="geometry">
            <mxRectangle width="410" height="30" as="alternateBounds" />
          </mxGeometry>
        </mxCell>
        <mxCell id="6AL398sb1X5Xjt_MEFjy-194" value="" style="shape=tableRow;horizontal=0;startSize=0;swimlaneHead=0;swimlaneBody=0;fillColor=none;collapsible=0;dropTarget=0;points=[[0,0.5],[1,0.5]];portConstraint=eastwest;strokeColor=inherit;top=0;left=0;right=0;bottom=0;" vertex="1" parent="6AL398sb1X5Xjt_MEFjy-184">
          <mxGeometry y="120" width="440" height="30" as="geometry" />
        </mxCell>
        <mxCell id="6AL398sb1X5Xjt_MEFjy-195" value="" style="shape=partialRectangle;overflow=hidden;connectable=0;fillColor=none;strokeColor=inherit;top=0;left=0;bottom=0;right=0;" vertex="1" parent="6AL398sb1X5Xjt_MEFjy-194">
          <mxGeometry width="30" height="30" as="geometry">
            <mxRectangle width="30" height="30" as="alternateBounds" />
          </mxGeometry>
        </mxCell>
        <mxCell id="6AL398sb1X5Xjt_MEFjy-196" value="cantidad_granos INTEGER" style="shape=partialRectangle;overflow=hidden;connectable=0;fillColor=none;align=left;strokeColor=inherit;top=0;left=0;bottom=0;right=0;spacingLeft=6;" vertex="1" parent="6AL398sb1X5Xjt_MEFjy-194">
          <mxGeometry x="30" width="410" height="30" as="geometry">
            <mxRectangle width="410" height="30" as="alternateBounds" />
          </mxGeometry>
        </mxCell>
        <mxCell id="6AL398sb1X5Xjt_MEFjy-197" style="shape=tableRow;horizontal=0;startSize=0;swimlaneHead=0;swimlaneBody=0;fillColor=none;collapsible=0;dropTarget=0;points=[[0,0.5],[1,0.5]];portConstraint=eastwest;strokeColor=inherit;top=0;left=0;right=0;bottom=0;" vertex="1" parent="6AL398sb1X5Xjt_MEFjy-184">
          <mxGeometry y="150" width="440" height="30" as="geometry" />
        </mxCell>
        <mxCell id="6AL398sb1X5Xjt_MEFjy-198" style="shape=partialRectangle;overflow=hidden;connectable=0;fillColor=none;strokeColor=inherit;top=0;left=0;bottom=0;right=0;" vertex="1" parent="6AL398sb1X5Xjt_MEFjy-197">
          <mxGeometry width="30" height="30" as="geometry">
            <mxRectangle width="30" height="30" as="alternateBounds" />
          </mxGeometry>
        </mxCell>
        <mxCell id="6AL398sb1X5Xjt_MEFjy-199" value="porcentaje DECIMAL (5,2)" style="shape=partialRectangle;overflow=hidden;connectable=0;fillColor=none;align=left;strokeColor=inherit;top=0;left=0;bottom=0;right=0;spacingLeft=6;" vertex="1" parent="6AL398sb1X5Xjt_MEFjy-197">
          <mxGeometry x="30" width="410" height="30" as="geometry">
            <mxRectangle width="410" height="30" as="alternateBounds" />
          </mxGeometry>
        </mxCell>
        <mxCell id="6AL398sb1X5Xjt_MEFjy-200" value="" style="shape=tableRow;horizontal=0;startSize=0;swimlaneHead=0;swimlaneBody=0;fillColor=none;collapsible=0;dropTarget=0;points=[[0,0.5],[1,0.5]];portConstraint=eastwest;strokeColor=inherit;top=0;left=0;right=0;bottom=0;" vertex="1" parent="6AL398sb1X5Xjt_MEFjy-184">
          <mxGeometry y="180" width="440" height="30" as="geometry" />
        </mxCell>
        <mxCell id="6AL398sb1X5Xjt_MEFjy-201" value="" style="shape=partialRectangle;overflow=hidden;connectable=0;fillColor=none;strokeColor=inherit;top=0;left=0;bottom=0;right=0;" vertex="1" parent="6AL398sb1X5Xjt_MEFjy-200">
          <mxGeometry width="30" height="30" as="geometry">
            <mxRectangle width="30" height="30" as="alternateBounds" />
          </mxGeometry>
        </mxCell>
        <mxCell id="6AL398sb1X5Xjt_MEFjy-202" value="marca_especial VARCHAR(10)" style="shape=partialRectangle;overflow=hidden;connectable=0;fillColor=none;align=left;strokeColor=inherit;top=0;left=0;bottom=0;right=0;spacingLeft=6;" vertex="1" parent="6AL398sb1X5Xjt_MEFjy-200">
          <mxGeometry x="30" width="410" height="30" as="geometry">
            <mxRectangle width="410" height="30" as="alternateBounds" />
          </mxGeometry>
        </mxCell>
        <mxCell id="6AL398sb1X5Xjt_MEFjy-203" style="edgeStyle=orthogonalEdgeStyle;rounded=0;orthogonalLoop=1;jettySize=auto;html=1;entryX=0;entryY=0.5;entryDx=0;entryDy=0;startArrow=ERmandOne;startFill=0;endArrow=ERoneToMany;endFill=0;" edge="1" parent="1" source="6AL398sb1X5Xjt_MEFjy-81" target="6AL398sb1X5Xjt_MEFjy-91">
          <mxGeometry relative="1" as="geometry" />
        </mxCell>
        <mxCell id="6AL398sb1X5Xjt_MEFjy-204" style="edgeStyle=orthogonalEdgeStyle;rounded=0;orthogonalLoop=1;jettySize=auto;html=1;entryX=0;entryY=0.5;entryDx=0;entryDy=0;startArrow=ERmandOne;startFill=0;endArrow=ERoneToMany;endFill=0;" edge="1" parent="1" source="6AL398sb1X5Xjt_MEFjy-94" target="6AL398sb1X5Xjt_MEFjy-120">
          <mxGeometry relative="1" as="geometry" />
        </mxCell>
        <mxCell id="6AL398sb1X5Xjt_MEFjy-205" style="edgeStyle=orthogonalEdgeStyle;rounded=0;orthogonalLoop=1;jettySize=auto;html=1;entryX=0;entryY=0.5;entryDx=0;entryDy=0;startArrow=ERmandOne;startFill=0;endArrow=ERoneToMany;endFill=0;" edge="1" parent="1" source="6AL398sb1X5Xjt_MEFjy-113" target="6AL398sb1X5Xjt_MEFjy-149">
          <mxGeometry relative="1" as="geometry" />
        </mxCell>
        <mxCell id="6AL398sb1X5Xjt_MEFjy-206" style="edgeStyle=orthogonalEdgeStyle;rounded=0;orthogonalLoop=1;jettySize=auto;html=1;entryX=0;entryY=0.5;entryDx=0;entryDy=0;startArrow=ERmandOne;startFill=0;endArrow=ERoneToMany;endFill=0;" edge="1" parent="1" source="6AL398sb1X5Xjt_MEFjy-159" target="6AL398sb1X5Xjt_MEFjy-130">
          <mxGeometry relative="1" as="geometry" />
        </mxCell>
        <mxCell id="6AL398sb1X5Xjt_MEFjy-207" style="edgeStyle=orthogonalEdgeStyle;rounded=0;orthogonalLoop=1;jettySize=auto;html=1;entryX=0;entryY=0.5;entryDx=0;entryDy=0;startArrow=ERmandOne;startFill=0;endArrow=ERzeroToMany;endFill=0;" edge="1" parent="1" source="6AL398sb1X5Xjt_MEFjy-133" target="6AL398sb1X5Xjt_MEFjy-188">
          <mxGeometry relative="1" as="geometry" />
        </mxCell>
        <mxCell id="6AL398sb1X5Xjt_MEFjy-208" style="edgeStyle=orthogonalEdgeStyle;rounded=0;orthogonalLoop=1;jettySize=auto;html=1;entryX=1;entryY=0.5;entryDx=0;entryDy=0;startArrow=ERmandOne;startFill=0;endArrow=ERzeroToMany;endFill=0;" edge="1" parent="1" source="6AL398sb1X5Xjt_MEFjy-172" target="6AL398sb1X5Xjt_MEFjy-185">
          <mxGeometry relative="1" as="geometry">
            <mxPoint x="3050" y="670" as="targetPoint" />
          </mxGeometry>
        </mxCell>
        <mxCell id="6AL398sb1X5Xjt_MEFjy-209" style="edgeStyle=orthogonalEdgeStyle;rounded=0;orthogonalLoop=1;jettySize=auto;html=1;entryX=1;entryY=0.5;entryDx=0;entryDy=0;endArrow=ERoneToMany;endFill=0;startArrow=ERmandOne;startFill=0;" edge="1" parent="1" source="6AL398sb1X5Xjt_MEFjy-113" target="6AL398sb1X5Xjt_MEFjy-123">
          <mxGeometry relative="1" as="geometry" />
        </mxCell>
        <mxCell id="6AL398sb1X5Xjt_MEFjy-210" style="edgeStyle=orthogonalEdgeStyle;rounded=0;orthogonalLoop=1;jettySize=auto;html=1;entryX=1;entryY=0.5;entryDx=0;entryDy=0;startArrow=ERmandOne;startFill=0;endArrow=ERoneToMany;endFill=0;" edge="1" parent="1" source="6AL398sb1X5Xjt_MEFjy-133" target="6AL398sb1X5Xjt_MEFjy-152">
          <mxGeometry relative="1" as="geometry" />
        </mxCell>
        <mxCell id="6AL398sb1X5Xjt_MEFjy-211" value="latitud" style="ellipse;whiteSpace=wrap;html=1;align=center;" vertex="1" parent="1">
          <mxGeometry x="1740" y="1260" width="80" height="40" as="geometry" />
        </mxCell>
        <mxCell id="6AL398sb1X5Xjt_MEFjy-212" value="" style="endArrow=none;html=1;rounded=0;entryX=0.75;entryY=1;entryDx=0;entryDy=0;exitX=0;exitY=0;exitDx=0;exitDy=0;" edge="1" parent="1" source="6AL398sb1X5Xjt_MEFjy-211" target="6AL398sb1X5Xjt_MEFjy-21">
          <mxGeometry relative="1" as="geometry">
            <mxPoint x="1837" y="1276" as="sourcePoint" />
            <mxPoint x="1770" y="1250" as="targetPoint" />
          </mxGeometry>
        </mxCell>
      </root>
    </mxGraphModel>
  </diagram>
</mxfile>
